<svg xmlns="http://www.w3.org/2000/svg" width="289.778" height="461.377" viewBox="0 0 289.778 461.377">
  <g id="food_icons" data-name="food icons" transform="translate(-592.945 -2163.784)">
    <g id="soup" transform="translate(622.751 2527.017)">
      <g id="Group_30" data-name="Group 30" transform="translate(37.74 68.279)">
        <path id="Path_261" data-name="Path 261" d="M206.31,352.032c.134-3.251-1.945-6.531-6.243-9.012-8.3-4.794-21.721-4.793-29.97,0-4.11,2.389-6.161,5.518-6.156,8.649,0-.01,0-.02,0-.03l-.015,5.315c-.009,3.161,2.077,6.327,6.255,8.74,8.3,4.794,21.721,4.793,29.968,0,4.1-2.382,6.151-5.5,6.159-8.62l.015-5.315C206.322,351.85,206.314,351.941,206.31,352.032Z" transform="translate(-163.925 -339.425)" fill="#c6c5cb"/>
        <path id="Path_262" data-name="Path 262" d="M206.321,392.6l-.015,5.315c-.009,3.122-2.061,6.239-6.159,8.62-8.247,4.793-21.665,4.794-29.968,0-4.178-2.412-6.264-5.578-6.255-8.74l.015-5.315c-.009,3.161,2.077,6.327,6.255,8.74,8.3,4.794,21.72,4.793,29.968,0C204.261,398.837,206.312,395.72,206.321,392.6Z" transform="translate(-163.924 -380.264)" fill="#c6c5cb"/>
      </g>
      <g id="Group_31" data-name="Group 31" transform="translate(0 0)">
        <path id="Path_263" data-name="Path 263" d="M200.117,343.02c8.3,4.794,8.345,12.566.1,17.36s-21.665,4.794-29.968,0-8.345-12.566-.1-17.359S191.814,338.226,200.117,343.02Z" transform="translate(-126.234 -271.146)" fill="#e0e0e2"/>
        <path id="Path_264" data-name="Path 264" d="M117.873,77.374c.117-8.663-5.421-17.367-16.67-24.092-22.688-13.563-60-13.94-83.344-.842C5.919,59.139-.049,68.068,0,77.006c0-.057,0-.118,0-.173,0,.066,0,.132,0,.2,0,.132,0,.263.007.4,0,.108.006.217.01.326,0-.057,0-.114,0-.17,0,.087.006.175.01.262,0-.031,0-.061-.005-.092.036,1.364.1,2.932.181,4.167.059.912.2,2.123.327,3.028s.3,2.12.484,3.017c.326,1.573.806,3.662,1.223,5.214.241.9.622,2.078.922,2.957s.723,2.076,1.092,2.942c.633,1.485,1.524,3.446,2.236,4.9.431.878,1.082,2.009,1.569,2.856.5.874,1.209,2.022,1.784,2.851.936,1.35,2.24,3.113,3.248,4.41.669.861,1.644,1.941,2.376,2.749.558.615,1.331,1.408,1.921,1.992.852.843,2.035,1.919,2.935,2.712.634.558,1.5,1.276,2.174,1.788,1.107.844,2.608,1.938,3.761,2.717.943.637,2.242,1.424,3.224,2,1.259.738,3,1.612,4.307,2.259.761.376,1.8.818,2.585,1.149,1.052.445,2.481.972,3.56,1.347.9.312,2.108.7,3.026.943,1.58.424,3.708.9,5.31,1.235.823.171,1.935.326,2.768.441.788.109,1.842.242,2.635.3,1.569.106,3.664.227,5.237.236.789,0,1.842-.022,2.631-.057s1.838-.121,2.625-.174c.832-.056,1.933-.214,2.761-.311,1.44-.169,4.456-.74,5.71-1.07,1.083-.285,2.536-.637,3.6-.984,1.622-.529,3.761-1.311,5.348-1.935,1.137-.448,2.6-1.162,3.7-1.7.8-.389,1.833-.954,2.606-1.386a60.153,60.153,0,0,0,6.59-4.31c.963-.723,2.21-1.736,3.123-2.521.845-.727,1.951-1.723,2.732-2.518,1.171-1.193,2.686-2.829,3.786-4.088.673-.771,1.5-1.854,2.118-2.672.594-.793,1.368-1.866,1.9-2.7.874-1.375,2-3.235,2.783-4.664.455-.831,1.013-1.965,1.415-2.823s.91-1.984,1.244-2.857c.576-1.5,1.287-3.53,1.781-5.062.282-.872.586-2.056.8-2.945a56.178,56.178,0,0,0,1.093-5.614c.11-.9.292-2.106.358-3.014.059-.8.151-1.878.189-2.684s.068-1.89.068-2.7C117.878,77.232,117.874,77.3,117.873,77.374Z" transform="translate(0 -42.858)" fill="#e0e0e2"/>
      </g>
      <path id="Path_265" data-name="Path 265" d="M55.834,135.151c-1.751-1.078-4-2.65-5.641-3.895a37.36,37.36,0,0,1-3.608-3.136,73.441,73.441,0,0,1-4.976-5.475,54.379,54.379,0,0,1-4.143-6.125,54.929,54.929,0,0,1-2.914-5.887,72.91,72.91,0,0,1-2.508-7.615,50.289,50.289,0,0,1-1.134-6.269c-.223-1.872-.326-4.39-.359-6.275.022-7.821,5.28-15.62,15.727-21.482h0c20.556-11.535,53.418-11.2,73.4.742,9.826,5.874,14.707,13.462,14.686,21.03h0c-.053,1.247-.026,2.917-.177,4.156a64.9,64.9,0,0,1-1.314,8.085,58.1,58.1,0,0,1-1.846,5.956c-.443,1.1-1.033,2.577-1.541,3.652-.558,1.181-1.349,2.737-2.011,3.863a65.312,65.312,0,0,1-4.283,6.315,58.26,58.26,0,0,1-4.56,5.04,44.791,44.791,0,0,1-4.219,3.671c-.819.61-1.9,1.438-2.751,2-1.121.745-2.644,1.7-3.817,2.361a55.96,55.96,0,0,1-5.551,2.7c-.93.384-2.186.856-3.137,1.184-.839.29-1.968.654-2.828.874-.743.191-1.728.472-2.481.623-.735.147-1.712.36-2.45.489s-1.722.272-2.463.369c-.711.093-1.662.2-2.378.243-.694.04-1.619.107-2.314.131s-1.617.038-2.31.028c-1.39-.019-3.241-.145-4.628-.253-.712-.055-1.657-.183-2.363-.29-.726-.11-1.693-.27-2.414-.411-.742-.145-1.723-.378-2.461-.542-.756-.168-1.746-.469-2.492-.679a52.274,52.274,0,0,1-5.622-2.047c-.839-.37-1.953-.874-2.769-1.292C58.163,136.469,56.81,135.752,55.834,135.151Z" transform="translate(-23.516 -56.48)" fill="#c6c5cb"/>
      <path id="Path_266" data-name="Path 266" d="M54.4,114.574c-19.76,11.088-20.208,29.384-1,40.866s50.8,11.8,70.555.713,20.208-29.384,1-40.866-50.8-11.8-70.555-.713" transform="translate(-30.238 -91.818)" fill="#ffb657"/>
      <path id="Path_267" data-name="Path 267" d="M249.71,206.568c-.9-.521-10.425.236-14.729,2.738s-2.912,4.9-.659,6.2a10.773,10.773,0,0,0,10.71-.4c4.3-2.5,5.449-8.1,4.678-8.54" transform="translate(-178.729 -168.757)" fill="#8fcc05"/>
      <g id="Group_32" data-name="Group 32" transform="translate(50.852 39.114)">
        <path id="Path_268" data-name="Path 268" d="M282.181,212.75l-.471,2.235.57-.331-.1-1.9" transform="translate(-267.703 -212.75)" fill="#9cdd03"/>
        <path id="Path_269" data-name="Path 269" d="M268.567,217.926l.255,2.653.569-.331-.824-2.322" transform="translate(-257.586 -216.734)" fill="#9cdd03"/>
        <path id="Path_270" data-name="Path 270" d="M252.334,222.5l1.221,3.212.569-.331-1.79-2.881" transform="translate(-245.091 -220.253)" fill="#9cdd03"/>
        <path id="Path_271" data-name="Path 271" d="M285.565,221.069l-3.287-.05-.57.331,3.856-.281" transform="translate(-267.703 -219.115)" fill="#9cdd03"/>
        <path id="Path_272" data-name="Path 272" d="M274.255,228.483l-4.012-.47-.569.331,4.582.139" transform="translate(-258.438 -224.499)" fill="#9cdd03"/>
        <path id="Path_273" data-name="Path 273" d="M263.184,236.037l-4.979-1.028-.569.331,5.548.7" transform="translate(-249.172 -229.884)" fill="#9cdd03"/>
        <path id="Path_274" data-name="Path 274" d="M221.045,223.336l-.006,0h0a.394.394,0,0,0-.166.363,1.24,1.24,0,0,0,.563.975.385.385,0,0,0,.42.026l-.018.013s16.5-9.705,16.4-9.777C238.081,214.848,221.4,223.157,221.045,223.336Z" transform="translate(-220.873 -214.433)" fill="#9cdd03"/>
      </g>
      <path id="Path_275" data-name="Path 275" d="M57.921,118.092h0c19.76-11.088,51.348-10.769,70.555.713A40.415,40.415,0,0,1,134,122.741a35.678,35.678,0,0,0-9.046-7.453c-19.207-11.482-50.8-11.8-70.555-.713h0c-17.628,9.892-19.885,25.52-6.53,36.93C38.638,140.562,42.044,127,57.921,118.092Z" transform="translate(-30.241 -91.819)" fill="#ffa834"/>
      <g id="Group_33" data-name="Group 33" transform="translate(20.877 32.721)">
        <path id="Path_276" data-name="Path 276" d="M93.259,186.363c-3.374,1.893-3.45,5.017-.171,6.977a13.274,13.274,0,0,0,12.046.122c3.374-1.893,3.45-5.017.171-6.977a13.275,13.275,0,0,0-12.046-.122" transform="translate(-90.677 -184.978)" fill="#fec377"/>
        <path id="Path_277" data-name="Path 277" d="M186.209,192.315c-2.013,1.13-2.059,2.994-.1,4.164a7.923,7.923,0,0,0,7.189.073c2.013-1.13,2.059-2.994.1-4.164a7.921,7.921,0,0,0-7.189-.073" transform="translate(-163.029 -189.99)" fill="#fec377"/>
      </g>
      <path id="Path_278" data-name="Path 278" d="M220.477,246.495h0a.419.419,0,0,0-.176.385,1.316,1.316,0,0,0,.6,1.035.408.408,0,0,0,.446.028l-.02.014s1.457-.857,3.526-2.078a5.712,5.712,0,0,1-.732-.363,4.271,4.271,0,0,1-.677-.5c-1.7.844-2.865,1.425-2.959,1.472Z" transform="translate(-169.581 -198.476)" fill="#ffa834"/>
      <path id="Path_279" data-name="Path 279" d="M149.509,252.507c-1.487.835-1.521,2.212-.075,3.076a5.851,5.851,0,0,0,5.31.054c1.487-.835,1.521-2.212.075-3.076a5.851,5.851,0,0,0-5.31-.054" transform="translate(-114.211 -203.769)" fill="#fec377"/>
      <path id="Path_280" data-name="Path 280" d="M87.892,241.934c-.773.432-1.811,1-2.606,1.386-1.1.537-2.565,1.251-3.7,1.7-1.588.625-3.726,1.406-5.348,1.935-1.065.347-2.518.7-3.6.984-1.255.33-4.27.9-5.71,1.07-.828.1-1.929.255-2.761.311-.788.053-1.837.139-2.625.174s-1.841.061-2.631.057c-1.573-.008-3.668-.13-5.237-.236-.794-.054-1.847-.187-2.635-.3-.833-.115-1.945-.27-2.768-.441-1.6-.332-3.73-.811-5.31-1.235-.918-.247-2.128-.631-3.026-.944-1.078-.375-2.508-.9-3.56-1.347-.782-.33-1.824-.773-2.585-1.149-1.308-.647-3.048-1.521-4.307-2.259-.982-.575-2.281-1.362-3.224-2-1.154-.779-2.654-1.873-3.761-2.717-.672-.512-1.54-1.23-2.174-1.788-.9-.792-2.083-1.869-2.935-2.712-.59-.584-1.364-1.377-1.921-1.992-.732-.808-1.707-1.889-2.376-2.749-1.008-1.3-2.312-3.059-3.248-4.41-.575-.829-1.281-1.977-1.784-2.851-.488-.847-1.139-1.979-1.569-2.856-.711-1.449-1.6-3.41-2.236-4.9-.369-.866-.788-2.051-1.092-2.942s-.681-2.06-.922-2.957c-.417-1.552-.9-3.641-1.223-5.214-.186-.9-.36-2.109-.484-3.017S.26,196.428.2,195.516c-.1-1.523-.175-3.559-.2-5.085-.024,8.593,5.518,17.21,16.675,23.88,22.688,13.563,60,13.94,83.344.842,11.863-6.657,17.833-15.513,17.859-24.393,0,.81-.03,1.891-.068,2.7s-.13,1.879-.189,2.684c-.067.908-.248,2.11-.358,3.014a56.253,56.253,0,0,1-1.093,5.614c-.218.889-.523,2.073-.8,2.945-.495,1.532-1.205,3.558-1.781,5.062-.335.873-.848,2.01-1.244,2.857s-.959,1.992-1.415,2.823c-.783,1.429-1.909,3.289-2.783,4.664-.532.836-1.306,1.91-1.9,2.7-.614.819-1.445,1.9-2.118,2.672-1.1,1.259-2.615,2.9-3.786,4.088-.781.8-1.887,1.791-2.732,2.518-.912.786-2.16,1.8-3.123,2.521A60.2,60.2,0,0,1,87.892,241.934Z" transform="translate(0 -156.455)" fill="#d8d8da"/>
      <path id="Path_281" data-name="Path 281" d="M17.859,52.44c23.341-13.1,60.656-12.721,83.344.842s22.159,35.176-1.183,48.273-60.656,12.721-83.344-.842S-5.483,65.537,17.859,52.44Zm4.9,2.931C2.2,66.9,1.738,85.938,21.719,97.883s52.842,12.276,73.4.742,21.023-30.568,1.042-42.512-52.842-12.276-73.4-.742" transform="translate(0 -42.858)" fill="#e0e0e2"/>
    </g>
    <g id="sushi" transform="translate(593.103 2407.259)">
      <path id="Path_333" data-name="Path 333" d="M65.043,15.523c.027-1.392-.88-2.791-2.72-3.853L44.82,1.564a14.364,14.364,0,0,0-13.035,0L14.4,11.67c-1.788,1.039-2.68,2.4-2.678,3.762,0,0,0-.009,0-.013V55.3c0,1.375.9,2.752,2.721,3.8l17.5,10.106a14.364,14.364,0,0,0,13.035,0L62.366,59.1c1.782-1.036,2.675-2.391,2.678-3.749V15.471C65.045,15.488,65.044,15.505,65.043,15.523Z" transform="translate(-11.717 0)" fill="#1d1d1f"/>
      <path id="Path_334" data-name="Path 334" d="M300.183,87.294v39.881c0,1.358-.9,2.713-2.678,3.749V91.043C299.287,90.007,300.18,88.652,300.183,87.294Z" transform="translate(-246.856 -71.823)" fill="#2e2e30"/>
      <g id="Group_34" data-name="Group 34" transform="translate(0 15.419)">
        <path id="Path_335" data-name="Path 335" d="M11.716,126.881V87c0,1.375.9,2.752,2.721,3.8v39.881C12.62,129.633,11.712,128.256,11.716,126.881Z" transform="translate(-11.716 -87)" fill="#1d1d1f"/>
        <path id="Path_336" data-name="Path 336" d="M216.771,108.447v39.881l-17.39,10.106V118.553Z" transform="translate(-166.122 -104.646)" fill="#1d1d1f"/>
      </g>
      <path id="Path_337" data-name="Path 337" d="M44.572,118.556v39.881l-17.5-10.106V108.45Z" transform="translate(-24.347 -89.23)" fill="#2e2e30"/>
      <path id="Path_338" data-name="Path 338" d="M138.867,165.47v39.881a14.364,14.364,0,0,1-13.035,0V165.47A14.365,14.365,0,0,0,138.867,165.47Z" transform="translate(-105.608 -136.144)" fill="#3e3d43"/>
      <path id="Path_339" data-name="Path 339" d="M62.323,11.671c3.611,2.085,3.63,5.465.042,7.55L44.975,29.328a14.364,14.364,0,0,1-13.035,0l-17.5-10.106c-3.611-2.085-3.63-5.465-.042-7.55L31.785,1.566a14.364,14.364,0,0,1,13.035,0Z" transform="translate(-11.716 -0.002)" fill="#57565c"/>
      <path id="Path_340" data-name="Path 340" d="M46.616,37.285a11.665,11.665,0,0,1-5.648-1.328L23.464,25.85c-1.17-.676-1.842-1.5-1.843-2.27s.657-1.575,1.8-2.242l17.39-10.106a11.568,11.568,0,0,1,5.627-1.326,11.666,11.666,0,0,1,5.649,1.328l17.5,10.105c1.17.676,1.842,1.5,1.843,2.27s-.657,1.575-1.805,2.242L52.243,35.958A11.563,11.563,0,0,1,46.616,37.285Z" transform="translate(-19.866 -8.15)" fill="#e0e0e2"/>
      <g id="Group_35" data-name="Group 35" transform="translate(5.384 9.767)">
        <path id="Path_341" data-name="Path 341" d="M63.8,93.889s.048,1.3.366,1.421a4.372,4.372,0,0,0,1.437-.156l.24-.929Z" transform="translate(-59.954 -87.017)" fill="#d8d8da"/>
        <path id="Path_342" data-name="Path 342" d="M68.313,55.85s.62.729.861.655.76-.746.76-.746l-.285-.647Z" transform="translate(-63.667 -55.112)" fill="#d8d8da"/>
        <path id="Path_343" data-name="Path 343" d="M42.714,68.266c-.17-.076-.922-1.749-.483-2.037s.848-.508.848-.508.688-.132.688-.57a2.669,2.669,0,0,1,.527-1.4,26.294,26.294,0,0,0,2.633,0c.307-.088,1.975-1.492,2.107-1.4s.614.263.746.439-1.141.966-1.58,1.668-2.458,1.889-2.458,2.327-1.448.263-1.448.263a5.452,5.452,0,0,1,.263.878A2.839,2.839,0,0,1,42.714,68.266Z" transform="translate(-42.096 -61.057)" fill="#d8d8da"/>
      </g>
      <g id="Group_36" data-name="Group 36" transform="translate(14.453 5.714)">
        <path id="Path_344" data-name="Path 344" d="M108.564,49.211l7.831-4.521a2.194,2.194,0,0,0,1.294-1.808l-.043-3.592s0,0,0,.006a2.173,2.173,0,0,0-1.274-1.789l-7.78-4.521a6.832,6.832,0,0,0-6.2,0l-7.831,4.521a2.161,2.161,0,0,0-1.292,1.864c0-.019,0-.038,0-.056l.043,3.592a2.176,2.176,0,0,0,1.274,1.783l7.78,4.521A6.832,6.832,0,0,0,108.564,49.211Z" transform="translate(-93.268 -32.242)" fill="#86bc06"/>
        <path id="Path_345" data-name="Path 345" d="M93.312,75.742l-.043-3.592a2.176,2.176,0,0,0,1.274,1.783l.043,3.592A2.177,2.177,0,0,1,93.312,75.742Z" transform="translate(-93.269 -65.077)" fill="#86bc06"/>
      </g>
      <path id="Path_346" data-name="Path 346" d="M224.817,72.01l.043,3.592a2.193,2.193,0,0,1-1.294,1.808l-.043-3.592A2.193,2.193,0,0,0,224.817,72.01Z" transform="translate(-185.985 -59.248)" fill="#7aab02"/>
      <path id="Path_347" data-name="Path 347" d="M108.237,86.733l.043,3.591L100.5,85.8l-.043-3.591Z" transform="translate(-84.73 -67.642)" fill="#86bc06"/>
      <path id="Path_348" data-name="Path 348" d="M187.168,82.212l.043,3.591-7.831,4.521-.042-3.591Z" transform="translate(-149.63 -67.642)" fill="#7aab02"/>
      <path id="Path_349" data-name="Path 349" d="M150.556,107.724l.043,3.592a6.832,6.832,0,0,1-6.2,0l-.043-3.592A6.833,6.833,0,0,0,150.556,107.724Z" transform="translate(-120.849 -88.632)" fill="#8fcc05"/>
      <path id="Path_350" data-name="Path 350" d="M108.522,45.62a6.832,6.832,0,0,1-6.2,0L94.542,41.1c-1.706-.992-1.7-2.6.02-3.591l7.831-4.521a6.832,6.832,0,0,1,6.2,0l7.78,4.521c1.706.992,1.7,2.6-.02,3.591Z" transform="translate(-78.815 -26.528)" fill="#9cdd03"/>
      <path id="Path_351" data-name="Path 351" d="M252.708,128.2c.027-1.392-.88-2.791-2.72-3.853l-17.5-10.106a14.364,14.364,0,0,0-13.035,0l-17.39,10.106c-1.788,1.039-2.68,2.4-2.678,3.762,0,0,0-.009,0-.013v39.881c0,1.375.9,2.752,2.721,3.8l17.5,10.106a14.364,14.364,0,0,0,13.035,0l17.39-10.106c1.782-1.036,2.675-2.391,2.678-3.749V128.15C252.71,128.167,252.709,128.184,252.708,128.2Z" transform="translate(-166.122 -92.709)" fill="#1d1d1f"/>
      <path id="Path_352" data-name="Path 352" d="M487.848,199.972v39.881c0,1.358-.9,2.713-2.678,3.749V203.721C486.952,202.685,487.845,201.33,487.848,199.972Z" transform="translate(-401.261 -164.532)" fill="#2e2e30"/>
      <g id="Group_37" data-name="Group 37" transform="translate(33.259 35.388)">
        <path id="Path_353" data-name="Path 353" d="M199.381,239.559V199.678c0,1.375.9,2.752,2.721,3.8V243.36C200.285,242.311,199.377,240.934,199.381,239.559Z" transform="translate(-199.381 -199.678)" fill="#1d1d1f"/>
        <path id="Path_354" data-name="Path 354" d="M404.436,221.125v39.881l-17.39,10.106V231.231Z" transform="translate(-353.787 -217.324)" fill="#1d1d1f"/>
      </g>
      <path id="Path_355" data-name="Path 355" d="M232.237,231.234v39.881l-17.5-10.106V221.128Z" transform="translate(-178.754 -181.938)" fill="#2e2e30"/>
      <path id="Path_356" data-name="Path 356" d="M326.532,278.148v39.881a14.364,14.364,0,0,1-13.035,0V278.148A14.365,14.365,0,0,0,326.532,278.148Z" transform="translate(-260.013 -228.853)" fill="#3e3d43"/>
      <path id="Path_357" data-name="Path 357" d="M249.988,124.347c3.611,2.085,3.63,5.465.042,7.55L232.641,142a14.364,14.364,0,0,1-13.035,0L202.1,131.9c-3.611-2.085-3.63-5.466-.042-7.55l17.39-10.106a14.364,14.364,0,0,1,13.035,0Z" transform="translate(-166.122 -92.708)" fill="#57565c"/>
      <path id="Path_358" data-name="Path 358" d="M234.282,149.963a11.665,11.665,0,0,1-5.648-1.329l-17.5-10.106c-1.17-.676-1.842-1.5-1.843-2.27s.657-1.575,1.8-2.242l17.39-10.106a12.637,12.637,0,0,1,11.275,0l17.5,10.105c1.17.676,1.842,1.5,1.843,2.27s-.657,1.575-1.8,2.242l-17.39,10.106A11.565,11.565,0,0,1,234.282,149.963Z" transform="translate(-174.272 -100.86)" fill="#e0e0e2"/>
      <g id="Group_38" data-name="Group 38" transform="translate(38.643 29.737)">
        <path id="Path_359" data-name="Path 359" d="M251.465,206.567s.048,1.3.366,1.421a4.367,4.367,0,0,0,1.437-.156l.24-.929Z" transform="translate(-247.618 -199.695)" fill="#d8d8da"/>
        <path id="Path_360" data-name="Path 360" d="M255.978,168.528s.62.729.861.655.76-.746.76-.746l-.285-.647Z" transform="translate(-251.332 -167.79)" fill="#d8d8da"/>
        <path id="Path_361" data-name="Path 361" d="M230.379,180.944c-.17-.076-.922-1.749-.483-2.037s.848-.508.848-.508.688-.132.688-.571a2.669,2.669,0,0,1,.527-1.4,26.3,26.3,0,0,0,2.633,0c.307-.088,1.975-1.492,2.107-1.4s.614.263.746.439-1.141.966-1.58,1.668-2.458,1.889-2.458,2.327-1.448.263-1.448.263a5.452,5.452,0,0,1,.263.878A2.837,2.837,0,0,1,230.379,180.944Z" transform="translate(-229.761 -173.735)" fill="#d8d8da"/>
      </g>
      <g id="Group_39" data-name="Group 39" transform="translate(47.712 25.684)">
        <path id="Path_362" data-name="Path 362" d="M296.229,161.889l7.831-4.521a2.194,2.194,0,0,0,1.294-1.808l-.043-3.592s0,0,0,.006a2.173,2.173,0,0,0-1.274-1.789l-7.78-4.521a6.832,6.832,0,0,0-6.2,0l-7.831,4.521a2.161,2.161,0,0,0-1.292,1.864c0-.019,0-.038,0-.056l.043,3.592a2.176,2.176,0,0,0,1.274,1.783l7.78,4.521A6.833,6.833,0,0,0,296.229,161.889Z" transform="translate(-280.933 -144.92)" fill="#f91"/>
        <path id="Path_363" data-name="Path 363" d="M280.977,188.42l-.043-3.592a2.176,2.176,0,0,0,1.274,1.783l.043,3.592A2.177,2.177,0,0,1,280.977,188.42Z" transform="translate(-280.934 -177.755)" fill="#f91"/>
      </g>
      <path id="Path_364" data-name="Path 364" d="M412.482,184.689l.043,3.592a2.194,2.194,0,0,1-1.294,1.808l-.043-3.592A2.194,2.194,0,0,0,412.482,184.689Z" transform="translate(-340.391 -151.957)" fill="#f18700"/>
      <path id="Path_365" data-name="Path 365" d="M295.9,199.411l.042,3.591-7.78-4.521-.043-3.592Z" transform="translate(-239.135 -160.35)" fill="#f91"/>
      <path id="Path_366" data-name="Path 366" d="M374.833,194.89l.043,3.592L367.045,203,367,199.411Z" transform="translate(-304.036 -160.35)" fill="#f18700"/>
      <path id="Path_367" data-name="Path 367" d="M338.221,220.4l.043,3.592a6.832,6.832,0,0,1-6.2,0l-.043-3.592A6.833,6.833,0,0,0,338.221,220.4Z" transform="translate(-275.254 -181.341)" fill="#ffa834"/>
      <path id="Path_368" data-name="Path 368" d="M296.187,158.3a6.832,6.832,0,0,1-6.2,0l-7.78-4.521c-1.706-.992-1.7-2.6.02-3.591l7.831-4.521a6.832,6.832,0,0,1,6.2,0l7.78,4.521c1.706.992,1.7,2.6-.02,3.591Z" transform="translate(-233.221 -119.237)" fill="#ffb657"/>
    </g>
    <g id="cake" transform="translate(783.959 2168.272)">
      <path id="Path_176" data-name="Path 176" d="M90.029,33.995c-4.906-6.808-12.1-13.07-21.263-18.363a118.92,118.92,0,0,0-31.7-12.22l-3.474,4.9-.017,6.008.024.007L.017,61.453,0,92.241,90.012,70.622l.017-30.6L90.012,40Z" transform="translate(0 -3.411)" fill="#fec377"/>
      <path id="Path_177" data-name="Path 177" d="M68.846,49.886C78.014,55.18,85.2,61.441,90.109,68.25L.1,89.685,37.146,37.666A118.928,118.928,0,0,1,68.846,49.886Z" transform="translate(-0.08 -31.643)" fill="#ffa834"/>
      <g id="Group_16" data-name="Group 16" transform="translate(0 30.584)">
        <path id="Path_178" data-name="Path 178" d="M90.029,211.6l-.017,30.6L0,263.82l.017-30.787Z" transform="translate(0 -205.574)" fill="#ffeb9a"/>
        <path id="Path_179" data-name="Path 179" d="M90.078,183.35l.017-6.008-8.443,2.029-.017,6.008.022.014L.083,204.8l0,30.787,90-21.616,0-30.6-.02,0Z" transform="translate(-0.066 -177.342)" fill="#ffeb9a"/>
      </g>
      <path id="Path_180" data-name="Path 180" d="M90.012,236.177,0,257.8l0,6.024L90.012,242.2l.017-30.6h0Z" transform="translate(0 -174.99)" fill="#a66206"/>
      <g id="Group_19" data-name="Group 19" transform="translate(33.575 4.896)">
        <g id="Group_18" data-name="Group 18">
          <g id="Group_17" data-name="Group 17">
            <path id="Path_181" data-name="Path 181" d="M305.609,80.726l-.017,6.008a69.581,69.581,0,0,0-19.747-16.368,104.725,104.725,0,0,0-14.025-6.707l.017-6.008a104.786,104.786,0,0,1,14.025,6.707,69.578,69.578,0,0,1,19.747,16.368" transform="translate(-257.598 -53.009)" fill="#f91"/>
            <path id="Path_182" data-name="Path 182" d="M216.416,38.987l-.017,6.008q-5.6-2.2-11.824-3.982L204.592,35q6.221,1.772,11.824,3.982" transform="translate(-202.178 -34.345)" fill="#f91"/>
            <path id="Path_183" data-name="Path 183" d="M193.355,31.913l-.017,6.008q-1.188-.338-2.4-.66l.017-6.008q1.21.322,2.4.66" transform="translate(-190.941 -31.253)" fill="#f91"/>
          </g>
        </g>
      </g>
      <path id="Path_184" data-name="Path 184" d="M226.213,15.632C235.381,20.926,242.57,27.187,247.476,34l-8.443,2.029a69.58,69.58,0,0,0-19.747-16.368A116.313,116.313,0,0,0,191.039,8.308l3.474-4.9A118.925,118.925,0,0,1,226.213,15.632Z" transform="translate(-157.447 -3.412)" fill="#ffa834"/>
    </g>
    <g id="pancake" transform="translate(625.121 2270.413)">
      <path id="Path_223" data-name="Path 223" d="M126.492,185.858a27.758,27.758,0,0,0-.465-3.948c-.207-.94-.511-2.191-.818-3.1a33.228,33.228,0,0,0-1.35-3.338,43.8,43.8,0,0,0-2.3-3.973c-.387-.615-1-1.369-1.434-1.955a24.646,24.646,0,0,0-1.724-2.027c-.8-.851-1.9-1.955-2.762-2.743a47.2,47.2,0,0,0-5.161-4.051c-1.071-.711-2.516-1.634-3.625-2.284-1.012-.593-2.394-1.331-3.442-1.857-1.177-.591-2.773-1.322-3.984-1.839-1.161-.5-2.723-1.126-3.917-1.534-1.265-.432-2.953-1.01-4.234-1.394S88.3,150.966,87,150.649c-1.324-.326-3.1-.714-4.44-.974s-3.152-.6-4.516-.766-3.209-.424-4.589-.562-3.252-.312-4.651-.357-3.272-.137-4.676-.151-3.28.039-4.686.056-3.267.176-4.667.264-3.267.3-4.662.475c-1.421.179-3.31.459-4.721.707a91.513,91.513,0,0,0-9.131,2.072c-2.473.7-5.731,1.788-8.11,2.758-1.326.541-3.074,1.312-4.367,1.928-1.075.513-2.465,1.284-3.521,1.834h0c-1.256.722-2.916,1.714-4.112,2.533a49.223,49.223,0,0,0-4.116,3.1c-1.321,1.151-3.019,2.764-4.2,4.055a40.879,40.879,0,0,0-2.868,3.647c-.421.593-.928,1.422-1.29,2.053s-.816,1.507-1.133,2.169a36.061,36.061,0,0,0-1.519,4,20.5,20.5,0,0,0-.693,3.053A36.486,36.486,0,0,0,0,186.522a26.466,26.466,0,0,0,.14,2.708c.054.594.2,1.379.288,1.969a23.573,23.573,0,0,0,.778,3.094,27.12,27.12,0,0,0,1.3,3.317,35.2,35.2,0,0,0,2.232,3.971,45.375,45.375,0,0,0,3.042,3.934,42.676,42.676,0,0,0,3.111,3.126c1.451,1.323,3.566,2.88,5.15,4.039.845.618,2.047,1.332,2.939,1.879a46.47,46.47,0,0,0,4.121,2.257c1.192.558,2.773,1.322,3.984,1.839,1.161.5,2.721,1.131,3.918,1.534,1.267.427,2.953,1.01,4.234,1.394s2.984.845,4.274,1.163c1.324.326,3.1.714,4.44.974s3.158.558,4.516.766,3.2.424,4.581.561c1.4.139,3.259.282,4.659.358s3.272.137,4.676.151,3.281-.038,4.686-.056,3.269-.153,4.667-.264S75,224.9,76.4,224.76c1.424-.147,3.315-.434,4.721-.707,2.644-.513,6.165-1.242,8.759-1.968,1.358-.38,3.156-.933,4.492-1.384,1.21-.408,2.8-1.024,3.991-1.478,1.338-.509,3.074-1.312,4.367-1.928,1.075-.513,2.466-1.281,3.521-1.834a47.264,47.264,0,0,0,4.111-2.533c.849-.577,1.97-1.367,2.77-2.011,1.1-.885,2.512-2.132,3.558-3.08a34.337,34.337,0,0,0,3.382-3.709c.465-.585,1.06-1.384,1.478-2,.449-.664,1.038-1.561,1.413-2.27.309-.582.752-1.345,1.009-1.952.5-1.183,1.149-2.774,1.519-4,.271-.9.521-2.13.693-3.053a16.01,16.01,0,0,0,.244-1.981C126.465,187.964,126.544,186.759,126.492,185.858Z" transform="translate(-0.001 -123.568)" fill="#ffb657"/>
      <path id="Path_224" data-name="Path 224" d="M39.025,161.205c22.956-12.881,59.654-12.511,81.967.828s21.793,34.595-1.163,47.476-59.654,12.511-81.967-.828S16.069,174.086,39.025,161.205Z" transform="translate(-16.159 -126.538)" fill="#f91"/>
      <path id="Path_225" data-name="Path 225" d="M18.979,214.559c-.892-.547-2.094-1.261-2.939-1.879-1.585-1.16-3.7-2.717-5.15-4.039a42.683,42.683,0,0,1-3.111-3.126,45.417,45.417,0,0,1-3.042-3.934,35.167,35.167,0,0,1-2.232-3.971,27.081,27.081,0,0,1-1.3-3.317A23.572,23.572,0,0,1,.433,191.2c-.091-.59-.234-1.375-.288-1.969A26.389,26.389,0,0,1,0,186.521a36.425,36.425,0,0,1,.329-3.973,20.5,20.5,0,0,1,.693-3.053,36.074,36.074,0,0,1,1.519-4c.317-.662.767-1.533,1.133-2.169s.869-1.46,1.29-2.053a40.962,40.962,0,0,1,2.868-3.647c1.185-1.291,2.883-2.9,4.2-4.055a49.216,49.216,0,0,1,4.116-3.1c1.2-.818,2.856-1.811,4.111-2.533a2.583,2.583,0,0,1,2.6.3C-.088,171.116-.609,192.372,21.7,205.711s59.011,13.71,81.968.828,23.477-34.137,1.163-47.476-59.011-13.71-81.967-.828a2.582,2.582,0,0,0-2.6-.3h0c1.056-.551,2.446-1.322,3.521-1.834,1.293-.616,3.041-1.388,4.367-1.928,2.38-.97,5.637-2.057,8.11-2.758a91.353,91.353,0,0,1,9.132-2.072c1.41-.248,3.3-.528,4.721-.707,1.4-.176,3.259-.387,4.662-.475s3.264-.247,4.667-.264,3.28-.07,4.686-.056,3.273.105,4.676.151,3.258.219,4.651.357,3.213.391,4.589.562,3.167.5,4.516.766,3.116.648,4.44.974c1.29.318,3,.78,4.274,1.163s2.969.962,4.234,1.394c1.194.408,2.756,1.038,3.917,1.534,1.211.517,2.807,1.249,3.984,1.839,1.049.527,2.43,1.264,3.442,1.857,1.109.65,2.554,1.573,3.625,2.284a47.209,47.209,0,0,1,5.161,4.051c.862.788,1.962,1.893,2.762,2.743a24.787,24.787,0,0,1,1.724,2.027c.431.586,1.047,1.339,1.434,1.955a43.74,43.74,0,0,1,2.3,3.973,33.318,33.318,0,0,1,1.35,3.338c.307.913.611,2.163.818,3.1a27.758,27.758,0,0,1,.465,3.948c.052.9-.027,2.106-.067,3.008a15.964,15.964,0,0,1-.244,1.981c-.172.923-.422,2.154-.693,3.053-.37,1.23-1.017,2.821-1.519,4-.258.607-.7,1.37-1.009,1.952-.376.709-.964,1.605-1.413,2.27-.419.618-1.013,1.419-1.478,2a34.365,34.365,0,0,1-3.382,3.709c-1.046.948-2.458,2.195-3.558,3.08-.8.644-1.921,1.434-2.77,2.011a47.192,47.192,0,0,1-4.111,2.533c-1.055.553-2.446,1.322-3.521,1.834-1.292.616-3.028,1.419-4.367,1.928-1.193.454-2.781,1.07-3.991,1.478-1.336.451-3.134,1-4.492,1.384-2.593.726-6.115,1.455-8.759,1.968-1.406.273-3.3.56-4.721.707-1.4.144-3.261.364-4.662.475s-3.264.245-4.667.264-3.28.07-4.686.056-3.274-.074-4.676-.151-3.264-.219-4.659-.358c-1.378-.137-3.212-.352-4.581-.561s-3.167-.5-4.516-.766-3.116-.648-4.44-.973c-1.29-.318-3-.78-4.274-1.163s-2.967-.968-4.234-1.394c-1.2-.4-2.757-1.038-3.918-1.534-1.211-.517-2.792-1.281-3.984-1.839A46.351,46.351,0,0,1,18.979,214.559Z" transform="translate(-0.002 -123.568)" fill="#ffa834"/>
      <path id="Path_226" data-name="Path 226" d="M126.492,136.748a27.759,27.759,0,0,0-.465-3.948c-.207-.94-.511-2.191-.818-3.1a33.227,33.227,0,0,0-1.35-3.338,43.808,43.808,0,0,0-2.3-3.973c-.387-.615-1-1.369-1.434-1.955A24.65,24.65,0,0,0,118.4,118.4c-.8-.851-1.9-1.955-2.762-2.743a47.2,47.2,0,0,0-5.161-4.051c-1.071-.711-2.516-1.634-3.625-2.284-1.012-.593-2.394-1.331-3.442-1.857-1.177-.591-2.773-1.322-3.984-1.839-1.161-.5-2.723-1.126-3.917-1.534-1.265-.432-2.953-1.01-4.234-1.394S88.3,101.856,87,101.539c-1.324-.326-3.1-.714-4.44-.974s-3.152-.6-4.516-.766-3.209-.424-4.589-.562-3.252-.312-4.651-.357-3.272-.137-4.676-.151-3.28.039-4.686.056-3.267.176-4.667.264-3.267.3-4.662.475c-1.421.179-3.31.459-4.721.707a91.511,91.511,0,0,0-9.131,2.072c-2.473.7-5.731,1.788-8.11,2.758-1.326.541-3.074,1.312-4.367,1.928-1.075.513-2.465,1.284-3.521,1.834h0c-1.256.722-2.916,1.714-4.112,2.533a49.22,49.22,0,0,0-4.116,3.1,58.406,58.406,0,0,0-4.2,4.055,40.877,40.877,0,0,0-2.868,3.647c-.421.593-.928,1.422-1.29,2.053s-.816,1.507-1.133,2.169a36.062,36.062,0,0,0-1.519,4,20.5,20.5,0,0,0-.693,3.053A36.486,36.486,0,0,0,0,137.412a26.466,26.466,0,0,0,.14,2.708c.054.594.2,1.379.288,1.969a23.572,23.572,0,0,0,.778,3.094A27.122,27.122,0,0,0,2.5,148.5a35.2,35.2,0,0,0,2.232,3.971,45.38,45.38,0,0,0,3.042,3.934,42.679,42.679,0,0,0,3.111,3.126c1.451,1.323,3.566,2.88,5.15,4.039.845.618,2.047,1.332,2.939,1.879a46.478,46.478,0,0,0,4.121,2.257c1.192.558,2.773,1.322,3.984,1.839,1.161.5,2.721,1.131,3.918,1.534,1.267.427,2.953,1.01,4.234,1.394s2.984.845,4.274,1.163c1.324.326,3.1.714,4.44.974s3.158.558,4.516.766,3.2.424,4.581.561c1.4.139,3.259.282,4.659.358s3.272.137,4.676.151,3.281-.038,4.686-.056,3.269-.153,4.667-.264,3.264-.331,4.662-.475c1.424-.147,3.315-.434,4.721-.707,2.644-.513,6.165-1.242,8.759-1.968,1.358-.38,3.156-.933,4.492-1.384,1.21-.408,2.8-1.024,3.991-1.478,1.338-.51,3.074-1.312,4.367-1.929,1.075-.513,2.466-1.281,3.521-1.834a47.264,47.264,0,0,0,4.111-2.533c.849-.577,1.97-1.367,2.77-2.011,1.1-.885,2.512-2.132,3.558-3.08a34.34,34.34,0,0,0,3.382-3.709c.465-.585,1.06-1.384,1.478-2,.449-.664,1.038-1.561,1.413-2.27.309-.582.752-1.345,1.009-1.952.5-1.183,1.149-2.774,1.519-4,.271-.9.521-2.13.693-3.053a16.01,16.01,0,0,0,.244-1.981C126.465,138.854,126.544,137.649,126.492,136.748Z" transform="translate(-0.001 -86.593)" fill="#ffb657"/>
      <path id="Path_227" data-name="Path 227" d="M39.025,112.094c22.956-12.881,59.654-12.511,81.967.828s21.793,34.595-1.163,47.476-59.654,12.511-81.967-.828S16.069,124.975,39.025,112.094Z" transform="translate(-16.159 -89.561)" fill="#f91"/>
      <g id="Group_23" data-name="Group 23" transform="translate(0 0)">
        <path id="Path_228" data-name="Path 228" d="M18.979,165.448c-.892-.547-2.094-1.261-2.939-1.879-1.585-1.16-3.7-2.717-5.15-4.039A42.673,42.673,0,0,1,7.779,156.4a45.417,45.417,0,0,1-3.042-3.934A35.165,35.165,0,0,1,2.505,148.5a27.08,27.08,0,0,1-1.3-3.317,23.57,23.57,0,0,1-.777-3.094c-.091-.59-.234-1.375-.288-1.969A26.392,26.392,0,0,1,0,137.41a36.363,36.363,0,0,1,.329-3.973,20.5,20.5,0,0,1,.693-3.053,36.073,36.073,0,0,1,1.519-4c.317-.662.767-1.533,1.133-2.169s.869-1.46,1.29-2.053a40.958,40.958,0,0,1,2.868-3.647c1.185-1.291,2.883-2.9,4.2-4.055a49.218,49.218,0,0,1,4.116-3.1c1.2-.818,2.856-1.811,4.111-2.533a2.583,2.583,0,0,1,2.6.3C-.088,122.005-.609,143.261,21.7,156.6s59.011,13.71,81.968.828,23.477-34.137,1.163-47.476-59.011-13.71-81.967-.828a2.582,2.582,0,0,0-2.6-.3h0c1.056-.551,2.446-1.322,3.521-1.834,1.293-.616,3.041-1.388,4.367-1.928,2.38-.97,5.637-2.057,8.11-2.758A91.361,91.361,0,0,1,45.4,100.23c1.41-.248,3.3-.528,4.721-.707,1.4-.176,3.259-.387,4.662-.475s3.264-.247,4.667-.264,3.28-.07,4.686-.056,3.273.105,4.676.151,3.258.219,4.651.357,3.213.391,4.589.562,3.167.5,4.516.766,3.116.648,4.44.974c1.29.317,3,.78,4.274,1.163s2.969.962,4.234,1.394c1.194.408,2.756,1.039,3.917,1.534,1.211.517,2.807,1.249,3.984,1.839,1.049.527,2.43,1.264,3.442,1.857,1.109.65,2.554,1.573,3.625,2.284a47.18,47.18,0,0,1,5.161,4.051c.862.788,1.962,1.893,2.762,2.743a24.79,24.79,0,0,1,1.724,2.027c.431.586,1.047,1.339,1.434,1.955a43.687,43.687,0,0,1,2.3,3.973,33.318,33.318,0,0,1,1.35,3.338c.307.913.611,2.163.818,3.1a27.758,27.758,0,0,1,.465,3.948c.052.9-.027,2.106-.067,3.008a15.962,15.962,0,0,1-.244,1.981c-.172.923-.422,2.154-.693,3.053-.37,1.23-1.017,2.821-1.519,4-.258.607-.7,1.37-1.009,1.952-.376.709-.964,1.605-1.413,2.27-.419.618-1.013,1.419-1.478,2a34.365,34.365,0,0,1-3.382,3.709c-1.046.948-2.458,2.195-3.558,3.08-.8.644-1.921,1.434-2.77,2.011a47.2,47.2,0,0,1-4.111,2.533c-1.055.553-2.446,1.322-3.521,1.834-1.292.616-3.028,1.419-4.367,1.928-1.193.454-2.781,1.07-3.991,1.478-1.336.451-3.134,1-4.492,1.384-2.593.726-6.115,1.455-8.759,1.968-1.406.273-3.3.56-4.721.707-1.4.144-3.261.364-4.662.475s-3.264.245-4.667.264-3.28.07-4.686.056-3.274-.074-4.676-.151-3.264-.219-4.659-.358c-1.378-.137-3.212-.352-4.581-.561s-3.167-.5-4.516-.766-3.116-.648-4.44-.974c-1.29-.318-3-.78-4.274-1.163S32.27,171.5,31,171.078c-1.2-.4-2.757-1.038-3.918-1.534-1.211-.517-2.792-1.281-3.984-1.839A46.192,46.192,0,0,1,18.979,165.448Z" transform="translate(-0.002 -86.592)" fill="#ffb657"/>
        <path id="Path_229" data-name="Path 229" d="M126.492,87.638a27.759,27.759,0,0,0-.465-3.948c-.207-.94-.511-2.191-.818-3.1a33.229,33.229,0,0,0-1.35-3.338,43.8,43.8,0,0,0-2.3-3.973c-.387-.615-1-1.369-1.434-1.955a24.65,24.65,0,0,0-1.724-2.027c-.8-.851-1.9-1.955-2.762-2.743a47.2,47.2,0,0,0-5.161-4.051c-1.071-.711-2.516-1.634-3.625-2.284-1.012-.593-2.394-1.331-3.442-1.857-1.177-.591-2.773-1.322-3.984-1.839-1.161-.5-2.723-1.126-3.917-1.534-1.265-.432-2.953-1.01-4.234-1.394S88.3,52.746,87,52.429c-1.324-.326-3.1-.714-4.44-.974s-3.152-.6-4.516-.766-3.209-.424-4.589-.562-3.252-.312-4.651-.357-3.272-.137-4.676-.151-3.28.039-4.686.056-3.267.176-4.667.264-3.267.3-4.662.475c-1.421.179-3.31.459-4.721.707a91.506,91.506,0,0,0-9.131,2.072c-2.473.7-5.731,1.788-8.11,2.758-1.326.541-3.074,1.312-4.367,1.928-1.075.513-2.465,1.284-3.521,1.834h0c-1.256.722-2.916,1.714-4.112,2.533a49.218,49.218,0,0,0-4.116,3.1,58.409,58.409,0,0,0-4.2,4.055A40.877,40.877,0,0,0,4.968,73.05c-.421.593-.928,1.422-1.29,2.053s-.816,1.507-1.133,2.169a36.063,36.063,0,0,0-1.519,4,20.5,20.5,0,0,0-.693,3.053A36.486,36.486,0,0,0,0,88.3a26.466,26.466,0,0,0,.14,2.708c.054.594.2,1.379.288,1.969a23.572,23.572,0,0,0,.778,3.094A27.121,27.121,0,0,0,2.5,99.39a35.206,35.206,0,0,0,2.232,3.971A45.377,45.377,0,0,0,7.779,107.3a42.682,42.682,0,0,0,3.111,3.126c1.451,1.323,3.566,2.88,5.15,4.039.845.618,2.047,1.332,2.939,1.879A46.472,46.472,0,0,0,23.1,118.6c1.192.558,2.773,1.322,3.984,1.839,1.161.5,2.721,1.131,3.918,1.534,1.267.427,2.953,1.01,4.234,1.394s2.984.845,4.274,1.163c1.324.326,3.1.714,4.44.974s3.158.558,4.516.766,3.2.424,4.581.561c1.4.139,3.259.282,4.659.358s3.272.137,4.676.151,3.281-.038,4.686-.056,3.269-.153,4.667-.264,3.264-.331,4.662-.475c1.424-.147,3.315-.434,4.721-.707,2.644-.513,6.165-1.242,8.759-1.968,1.358-.38,3.156-.933,4.492-1.384,1.21-.408,2.8-1.024,3.991-1.478,1.338-.509,3.074-1.312,4.367-1.928,1.075-.513,2.466-1.281,3.521-1.834a47.262,47.262,0,0,0,4.111-2.533c.849-.577,1.97-1.367,2.77-2.011,1.1-.885,2.512-2.132,3.558-3.08a34.339,34.339,0,0,0,3.382-3.709c.465-.585,1.06-1.384,1.478-2,.449-.664,1.038-1.561,1.413-2.27.309-.582.752-1.345,1.009-1.952.5-1.183,1.149-2.774,1.519-4,.271-.9.521-2.13.693-3.053a16.01,16.01,0,0,0,.244-1.981C126.465,89.744,126.544,88.539,126.492,87.638Z" transform="translate(-0.001 -49.618)" fill="#ffb657"/>
      </g>
      <path id="Path_230" data-name="Path 230" d="M39.025,62.984c22.956-12.881,59.654-12.511,81.967.828s21.793,34.595-1.163,47.476S60.175,123.8,37.862,110.46,16.069,75.865,39.025,62.984Z" transform="translate(-16.159 -52.586)" fill="#f91"/>
      <path id="Path_231" data-name="Path 231" d="M73.59,79.541c4.926-2.764,10.63-5.546,16.673-6.854,5.685-1.23,11.944,1.8,17.933,1.856,6.006.053,12.745-4.665,18.389-3.329,6.037,1.428,10.479,7.446,15.311,10.335,5.791,3.462,14.129,4.859,16.248,9.19,2.617,5.347-4.133,11.481-7.082,16.762-2.35,4.209-1.422,13.883-7.285,17.173-4.926,2.764-13.665-2.556-19.707-1.249-5.685,1.23-12.605,4.258-18.594,4.206-6.006-.053-9.33-6.178-14.974-7.514-6.037-1.428-13.44,3.655-18.272.767-5.791-3.462-6.3-10.062-8.414-14.392-2.617-5.347-6.821-10.6-3.872-15.883C62.293,86.4,67.728,82.831,73.59,79.541Z" transform="translate(-44.373 -65.698)" fill="#d07400"/>
      <path id="Path_232" data-name="Path 232" d="M18.979,116.338c-.892-.547-2.094-1.261-2.939-1.879-1.585-1.16-3.7-2.717-5.15-4.039a42.678,42.678,0,0,1-3.111-3.126,45.416,45.416,0,0,1-3.042-3.934,35.165,35.165,0,0,1-2.232-3.971,27.08,27.08,0,0,1-1.3-3.317,23.572,23.572,0,0,1-.777-3.094C.341,92.387.2,91.6.144,91.008A26.392,26.392,0,0,1,0,88.3a36.424,36.424,0,0,1,.329-3.973,20.5,20.5,0,0,1,.693-3.053,36.073,36.073,0,0,1,1.519-4c.317-.662.767-1.533,1.133-2.169s.869-1.46,1.29-2.053A40.959,40.959,0,0,1,7.836,69.4c1.185-1.291,2.883-2.9,4.2-4.055a49.217,49.217,0,0,1,4.116-3.1c1.2-.818,2.856-1.811,4.111-2.533a2.583,2.583,0,0,1,2.6.3C-.088,72.9-.609,94.151,21.7,107.49s59.011,13.71,81.968.828,23.477-34.137,1.163-47.476-59.011-13.71-81.967-.828a2.582,2.582,0,0,0-2.6-.3h0c1.056-.551,2.446-1.322,3.521-1.834,1.293-.616,3.041-1.388,4.367-1.928,2.38-.97,5.637-2.057,8.11-2.758A91.356,91.356,0,0,1,45.4,51.12c1.41-.248,3.3-.528,4.721-.707,1.4-.176,3.259-.387,4.662-.475s3.264-.247,4.667-.264,3.28-.07,4.686-.056,3.273.105,4.676.151,3.258.219,4.651.357,3.213.391,4.589.562,3.167.5,4.516.766,3.116.648,4.44.974c1.29.318,3,.78,4.274,1.163s2.969.962,4.234,1.394c1.194.408,2.756,1.038,3.917,1.534,1.211.517,2.807,1.249,3.984,1.839,1.049.527,2.43,1.264,3.442,1.857,1.109.65,2.554,1.573,3.625,2.284a47.179,47.179,0,0,1,5.161,4.051c.862.788,1.962,1.893,2.762,2.743a24.793,24.793,0,0,1,1.724,2.027c.431.586,1.047,1.339,1.434,1.955a43.687,43.687,0,0,1,2.3,3.973,33.316,33.316,0,0,1,1.35,3.338c.307.913.611,2.163.818,3.1a27.759,27.759,0,0,1,.465,3.948c.052.9-.027,2.106-.067,3.008a15.962,15.962,0,0,1-.244,1.981c-.172.923-.422,2.154-.693,3.053-.37,1.23-1.017,2.821-1.519,4-.258.607-.7,1.37-1.009,1.952-.376.709-.964,1.605-1.413,2.27-.419.618-1.013,1.419-1.478,2a34.365,34.365,0,0,1-3.382,3.709c-1.046.948-2.458,2.195-3.558,3.08-.8.644-1.921,1.434-2.77,2.011a47.2,47.2,0,0,1-4.111,2.533c-1.055.553-2.446,1.322-3.521,1.834-1.292.616-3.028,1.419-4.367,1.928-1.193.454-2.781,1.07-3.991,1.478-1.336.451-3.134,1-4.492,1.384-2.593.726-6.115,1.455-8.759,1.968-1.406.273-3.3.56-4.721.707-1.4.144-3.261.364-4.662.475s-3.264.245-4.667.264-3.28.07-4.686.056-3.274-.074-4.676-.151-3.264-.219-4.659-.358c-1.378-.137-3.212-.352-4.581-.561s-3.167-.5-4.516-.766-3.116-.648-4.44-.974c-1.29-.318-3-.78-4.274-1.163s-2.967-.968-4.234-1.394c-1.2-.4-2.757-1.038-3.918-1.534-1.211-.517-2.792-1.281-3.984-1.839A46.256,46.256,0,0,1,18.979,116.338Z" transform="translate(-0.002 -49.616)" fill="#fec377"/>
      <g id="Group_24" data-name="Group 24" transform="translate(50.16 17.775)">
        <path id="Path_233" data-name="Path 233" d="M216.3,121.555l-13.245,7.7-.043,8.027,13.375,7.7,13.2-7.7.043-8.027Z" transform="translate(-203.009 -121.555)" fill="#fed322"/>
        <path id="Path_234" data-name="Path 234" d="M270.385,152.705l-.043,8.027-13.2,7.7V160.4Z" transform="translate(-243.765 -145.008)" fill="#fed322"/>
      </g>
      <path id="Path_235" data-name="Path 235" d="M216.384,160.4v8.027l-13.375-7.7.043-8.027Z" transform="translate(-152.849 -127.235)" fill="#feda44"/>
      <path id="Path_236" data-name="Path 236" d="M229.761,129.252l-13.245,7.7-13.331-7.7,13.245-7.7Z" transform="translate(-152.982 -103.78)" fill="#ffe577"/>
      <ellipse id="Ellipse_20" data-name="Ellipse 20" cx="4.804" cy="11.437" rx="4.804" ry="11.437" transform="translate(32.14 25.155) rotate(-113.317)" fill="#f18700"/>
    </g>
    <g id="carrots" transform="translate(762.77 2514.517)">
      <path id="Path_185" data-name="Path 185" d="M64.521,88.609,0,125.861v10.5l56.431,32.58,63.523-36.675v-10.5Zm0,0" transform="translate(0 -67.85)" fill="#b2260b"/>
      <path id="Path_186" data-name="Path 186" d="M119.954,121.765,64.521,88.609,0,125.86l56.431,32.58Zm0,0" transform="translate(0 -67.849)" fill="#ff7e27"/>
      <path id="Path_187" data-name="Path 187" d="M240.863,266.8v10.5l63.523-36.675v-10.5Zm0,0" transform="translate(-184.432 -176.213)" fill="#ef5f26"/>
      <path id="Path_188" data-name="Path 188" d="M115.135,161.818h0c0-1.6-.973-3.13-2.952-4.273-4.376-2.527-12.023-2.21-17.076.707-2.849,1.645-4.266,3.765-4.177,5.755h0l.012.085c.013.191,2.438,17.816,2.438,17.816h0a4.345,4.345,0,0,0,2.314,2.849c3.512,2.027,9.645,1.774,13.7-.567,2.04-1.178,3.164-2.66,3.331-4.1l.023,0Zm0,0" transform="translate(-69.621 -119.328)" fill="#ff491f"/>
      <path id="Path_189" data-name="Path 189" d="M119.455,163.148c-3.7,2.134-9.289,2.367-12.49.518s-2.8-5.076.9-7.211,9.288-2.367,12.489-.518S123.151,161.014,119.455,163.148Zm0,0" transform="translate(-80.249 -118.448)" fill="#bf3717"/>
      <path id="Path_190" data-name="Path 190" d="M126.393,163.023c-2.588,1.494-6.5,1.656-8.745.362s-1.96-3.555.628-5.049,6.5-1.656,8.744-.362S128.981,161.528,126.393,163.023Zm0,0" transform="translate(-88.927 -120.294)" fill="#ff9279"/>
      <path id="Path_191" data-name="Path 191" d="M121.667,92.782a29.6,29.6,0,0,1-3.46-12.538c-.083-4.845.693-9,2.653-9.228s3.057,3.23,3.057,3.23,2.537-6.458,6.2-5.767-1.528,10.034-1.528,10.034,2.33-2.036,2.836.692c.552,2.981-3.1,10.191-4.893,13.505a2.654,2.654,0,0,1-3.543,1.1,4.336,4.336,0,0,1-1.322-1.027Zm0,0" transform="translate(-90.508 -52.396)" fill="#249155"/>
      <path id="Path_192" data-name="Path 192" d="M99.662,206.105a9.807,9.807,0,0,1-6.987-4.746,1.725,1.725,0,0,0-.389-.532c.217,1.593.524,3.834.837,6.119a14.364,14.364,0,0,0,5.869,2.553,1.7,1.7,0,0,0,.337.034,1.731,1.731,0,0,0,.333-3.428Zm0,0" transform="translate(-70.664 -153.777)" fill="#bf3717"/>
      <path id="Path_193" data-name="Path 193" d="M154.338,230.059a17.238,17.238,0,0,1-8.82,5.016,1.73,1.73,0,0,0,.283,3.436,1.749,1.749,0,0,0,.283-.023,20.371,20.371,0,0,0,7.579-3.27Zm0,0" transform="translate(-110.319 -176.16)" fill="#bf3717"/>
      <path id="Path_194" data-name="Path 194" d="M233.283,93.392h0c0-1.6-.972-3.13-2.951-4.273-4.377-2.528-12.023-2.21-17.077.707-2.848,1.645-4.265,3.765-4.176,5.755h0l.011.084c.014.192,2.439,17.816,2.439,17.816h0a4.344,4.344,0,0,0,2.314,2.85c3.512,2.027,9.644,1.773,13.7-.568,2.04-1.178,3.164-2.659,3.331-4.1l.023,0Zm0,0" transform="translate(-160.088 -66.933)" fill="#ff491f"/>
      <path id="Path_195" data-name="Path 195" d="M237.6,94.721c-3.7,2.134-9.288,2.366-12.489.518s-2.8-5.076.9-7.212,9.288-2.366,12.489-.517,2.8,5.076-.9,7.211Zm0,0" transform="translate(-170.717 -66.052)" fill="#bf3717"/>
      <path id="Path_196" data-name="Path 196" d="M244.541,94.6c-2.588,1.494-6.5,1.656-8.745.362s-1.96-3.555.628-5.049,6.5-1.656,8.745-.362S247.129,93.1,244.541,94.6Zm0,0" transform="translate(-179.394 -67.898)" fill="#ff9279"/>
      <path id="Path_197" data-name="Path 197" d="M239.816,24.354a29.578,29.578,0,0,1-3.46-12.538c-.083-4.845.692-9,2.653-9.227s3.056,3.23,3.056,3.23S244.6-.64,248.264.053s-1.528,10.034-1.528,10.034,2.33-2.036,2.836.692c.553,2.98-3.1,10.19-4.892,13.505a2.655,2.655,0,0,1-3.543,1.1,4.34,4.34,0,0,1-1.322-1.028Zm0,0" transform="translate(-180.977 -0.001)" fill="#249155"/>
      <path id="Path_198" data-name="Path 198" d="M217.81,137.68a9.807,9.807,0,0,1-6.987-4.746,1.715,1.715,0,0,0-.389-.532c.217,1.593.523,3.833.837,6.118a14.346,14.346,0,0,0,5.869,2.554,1.694,1.694,0,0,0,.337.033,1.73,1.73,0,0,0,.333-3.427Zm0,0" transform="translate(-161.132 -101.383)" fill="#bf3717"/>
      <path id="Path_199" data-name="Path 199" d="M272.486,161.633a17.238,17.238,0,0,1-8.82,5.016,1.73,1.73,0,0,0,.283,3.436,1.759,1.759,0,0,0,.283-.023,20.357,20.357,0,0,0,7.578-3.271Zm0,0" transform="translate(-200.787 -123.765)" fill="#bf3717"/>
      <path id="Path_200" data-name="Path 200" d="M216.053,220.092h0c0-1.6-.973-3.13-2.952-4.273-4.376-2.527-12.023-2.21-17.076.708-2.849,1.645-4.266,3.764-4.177,5.754h0l.012.085c.013.192,2.438,17.816,2.438,17.816h0a4.345,4.345,0,0,0,2.314,2.849c3.512,2.028,9.645,1.774,13.7-.567,2.04-1.178,3.164-2.66,3.331-4.1l.023,0Zm0,0" transform="translate(-146.895 -163.95)" fill="#ff491f"/>
      <path id="Path_201" data-name="Path 201" d="M220.373,221.423c-3.7,2.133-9.289,2.366-12.49.517s-2.8-5.076.9-7.211,9.288-2.366,12.489-.518,2.8,5.076-.9,7.212Zm0,0" transform="translate(-157.524 -163.07)" fill="#bf3717"/>
      <path id="Path_202" data-name="Path 202" d="M227.311,221.3c-2.588,1.494-6.5,1.656-8.745.362s-1.96-3.555.628-5.049,6.5-1.656,8.745-.362S229.9,219.8,227.311,221.3Zm0,0" transform="translate(-166.201 -164.915)" fill="#ff9279"/>
      <path id="Path_203" data-name="Path 203" d="M222.585,151.055a29.6,29.6,0,0,1-3.46-12.539c-.083-4.844.693-9,2.653-9.227s3.057,3.23,3.057,3.23,2.537-6.458,6.2-5.767-1.528,10.034-1.528,10.034,2.33-2.036,2.836.692c.552,2.98-3.1,10.191-4.893,13.505a2.654,2.654,0,0,1-3.543,1.1,4.337,4.337,0,0,1-1.322-1.027Zm0,0" transform="translate(-167.783 -97.016)" fill="#249155"/>
      <path id="Path_204" data-name="Path 204" d="M200.58,264.379a9.807,9.807,0,0,1-6.987-4.746,1.714,1.714,0,0,0-.389-.532c.217,1.593.524,3.834.837,6.118a14.352,14.352,0,0,0,5.869,2.554,1.776,1.776,0,0,0,.337.033,1.73,1.73,0,0,0,.333-3.427Zm0,0" transform="translate(-147.939 -198.398)" fill="#bf3717"/>
      <path id="Path_205" data-name="Path 205" d="M255.256,288.332a17.238,17.238,0,0,1-8.82,5.016,1.73,1.73,0,0,0,.565,3.414,20.351,20.351,0,0,0,7.579-3.271Zm0,0" transform="translate(-187.593 -220.78)" fill="#bf3717"/>
      <path id="Path_206" data-name="Path 206" d="M334.2,151.665h0c0-1.6-.972-3.131-2.951-4.273-4.377-2.528-12.023-2.21-17.076.707-2.849,1.645-4.266,3.764-4.177,5.754h0l.011.084c.014.192,2.439,17.816,2.439,17.816h0a4.344,4.344,0,0,0,2.314,2.85c3.512,2.027,9.644,1.773,13.7-.568,2.04-1.178,3.164-2.66,3.331-4.1l.023,0Zm0,0" transform="translate(-237.363 -111.554)" fill="#ff491f"/>
      <path id="Path_207" data-name="Path 207" d="M338.52,152.995c-3.7,2.134-9.288,2.366-12.489.518s-2.8-5.077.9-7.212,9.288-2.366,12.489-.517,2.8,5.076-.9,7.211Zm0,0" transform="translate(-247.992 -110.673)" fill="#bf3717"/>
      <path id="Path_208" data-name="Path 208" d="M345.459,152.869c-2.588,1.494-6.5,1.656-8.745.363s-1.96-3.555.628-5.049,6.5-1.656,8.745-.362S348.047,151.375,345.459,152.869Zm0,0" transform="translate(-256.669 -112.519)" fill="#ff9279"/>
      <path id="Path_209" data-name="Path 209" d="M340.737,82.628a29.569,29.569,0,0,1-3.459-12.538c-.084-4.845.692-9,2.652-9.227s3.057,3.23,3.057,3.23,2.537-6.459,6.2-5.767-1.528,10.034-1.528,10.034,2.33-2.036,2.836.692c.553,2.98-3.1,10.19-4.893,13.505a2.654,2.654,0,0,1-3.543,1.1A4.354,4.354,0,0,1,340.737,82.628Zm0,0" transform="translate(-258.254 -44.622)" fill="#249155"/>
      <g id="Group_20" data-name="Group 20" transform="translate(72.945 44.672)">
        <path id="Path_210" data-name="Path 210" d="M318.728,195.953a9.806,9.806,0,0,1-6.987-4.746,1.714,1.714,0,0,0-.389-.532c.217,1.592.524,3.833.837,6.118a14.346,14.346,0,0,0,5.869,2.554,1.771,1.771,0,0,0,.337.033,1.73,1.73,0,0,0,.333-3.427Zm0,0" transform="translate(-311.352 -190.676)" fill="#bf3717"/>
        <path id="Path_211" data-name="Path 211" d="M373.4,219.906a17.238,17.238,0,0,1-8.82,5.016,1.73,1.73,0,0,0,.283,3.436,1.661,1.661,0,0,0,.283-.024,20.345,20.345,0,0,0,7.578-3.27Zm0,0" transform="translate(-351.006 -213.058)" fill="#bf3717"/>
      </g>
    </g>
    <g id="chicken-leg" transform="translate(592.945 2163.784)">
      <g id="Group_21" data-name="Group 21" transform="translate(26.012 0)">
        <path id="Path_212" data-name="Path 212" d="M207.272,94.258c-.049-.465-.108-1.085-.173-1.547s-.177-1.054-.259-1.505c-.075-.414-.2-.962-.315-1.366-.2-.718-.5-1.669-.743-2.374a25.529,25.529,0,0,0-1.408-3.145c-.727-1.3-.727-1.3-1.137-1.923-.191-.292-.638-.976-1.34-1.862a24.756,24.756,0,0,0-2.623-2.84c-.631-.568-1.5-1.291-2.175-1.811-.451-.349-1.079-.779-1.563-1.08s-1.11-.7-1.611-.955c-.989-.5-2.329-1.132-3.352-1.561-.579-.243-1.376-.5-1.975-.688s-1.392-.405-2-.543a28.576,28.576,0,0,0-3.5-.615c-.677-.058-1.577-.166-2.256-.187-1.03-.031-2.407-.063-3.434.014-.72.054-1.681.117-2.4.217-1.018.143-2.371.378-3.376.593a42.71,42.71,0,0,0-4.853,1.461,26.7,26.7,0,0,0-3.25,1.41c-.743.4-1.75.9-2.474,1.332-.547.326-1.565.932-2.765,1.789-.751.537-1.716,1.3-2.433,1.885-.4.322-.9.779-1.274,1.126-.332.309-.768.727-1.087,1.049-.357.361-.816.859-1.165,1.229s-.79.888-1.108,1.286c-.553.693-1.261,1.641-1.777,2.362-.3.417-.666.993-.932,1.431s-.62,1.045-.872,1.5c-.211.382-.469.9-.669,1.291-.247.478-.538,1.134-.745,1.631-.329.791-.72,1.867-.994,2.679-.182.543-.386,1.28-.524,1.835-.152.613-.339,1.435-.441,2.058-.094.569-.185,1.27-.261,1.925q-.042.312-.072.636a5.352,5.352,0,0,1-.279.834,8.968,8.968,0,0,1-.55,1.079c-.044.077-.266.445-.546.826a10.665,10.665,0,0,1-.677.844s-.337.392-.8.826a11.808,11.808,0,0,1-.907.779c-.15.123-.358.277-.519.385-.29.2-.683.447-.982.63h0c-.293.179-.673.433-.951.634-.177.128-.4.321-.561.463a9.087,9.087,0,0,0-1.052,1.108,9.73,9.73,0,0,0-1.652,3.066c-.11.327-.219.774-.3,1.111-.05.215-.094.507-.126.725a11.762,11.762,0,0,0-.108,1.752,12.561,12.561,0,0,0,.136,1.695,13.062,13.062,0,0,0,.493,2.139c.062.206.153.479.232.68.155.392.366.914.546,1.3.09.19.212.442.315.625s.236.429.342.61.257.415.369.593a12.953,12.953,0,0,0,.824,1.145c.127.169.314.38.45.542.324.388.822.869,1.01,1.05a14.744,14.744,0,0,0,1.294,1.072c.182.13.425.3.615.42.3.184.7.425,1.01.582a10.919,10.919,0,0,0,1.372.595c.212.068.491.171.706.225.407.1.954.217,1.368.284a7.37,7.37,0,0,0,1.205.09c.217,0,.506,0,.722-.018.336-.028.783-.073,1.114-.137.213-.041.5-.1.7-.159.287-.081.665-.2.944-.307a12.359,12.359,0,0,0,1.32-.633,11.064,11.064,0,0,1,7.985-1.5c.539.243,1.2.527,1.718.728s1.244.458,1.787.622c.818.247,1.923.528,2.756.72.517.119,1.218.228,1.741.317.814.139,2.454.3,3.143.323.506.016,1.182.055,1.689.047.878-.014,2.048-.06,2.924-.12.5-.034,1.167-.115,1.664-.181s1.16-.162,1.652-.261c.882-.177,2.052-.442,2.924-.661.49-.123,1.134-.324,1.616-.478s1.127-.368,1.6-.554c.86-.339,2-.818,2.84-1.194.472-.211,1.084-.528,1.542-.768.417-.218.965-.525,1.373-.76.933-.537,2.131-1.333,3.015-1.949.639-.445,1.439-1.108,2.056-1.583a33.752,33.752,0,0,0,2.624-2.394,30.306,30.306,0,0,0,2.449-2.73,46.061,46.061,0,0,0,2.754-3.939,31.732,31.732,0,0,0,1.756-3.349c.269-.612.615-1.433.847-2.06s.514-1.458.693-2.1a33.524,33.524,0,0,0,.872-3.974c.112-.8.214-1.882.269-2.692.028-.41.028-.926.031-1.387h0c0-.136.006-.271,0-.406C207.352,95.595,207.332,94.829,207.272,94.258Z" transform="translate(-133.945 -70.223)" fill="#f18700"/>
        <path id="Path_213" data-name="Path 213" d="M266.851,220.627a54.483,54.483,0,0,1-24.617,6.787c-6.678.26-13.007,1.87-17.72,4.609.035,2.835-.942,4.836-2.542,5.766a11.064,11.064,0,0,1,7.985-1.5c.539.243,1.2.527,1.718.728s1.244.458,1.787.622c.818.247,1.923.528,2.756.72.517.119,1.218.228,1.741.317.814.139,2.454.3,3.143.323.506.016,1.182.055,1.689.047.878-.014,2.048-.06,2.924-.12.5-.034,1.167-.115,1.664-.181s1.16-.162,1.652-.261c.882-.177,2.052-.442,2.924-.661.49-.123,1.134-.324,1.616-.478s1.127-.368,1.6-.554c.86-.339,2-.818,2.84-1.194.472-.21,1.084-.528,1.542-.768.417-.218.965-.525,1.373-.76.933-.537,2.131-1.333,3.015-1.949.639-.445,1.439-1.108,2.056-1.583a33.718,33.718,0,0,0,2.624-2.394,30.3,30.3,0,0,0,2.449-2.73,46.07,46.07,0,0,0,2.754-3.939,31.737,31.737,0,0,0,1.756-3.349c.269-.612.615-1.433.847-2.06s.514-1.458.693-2.1a33.52,33.52,0,0,0,.872-3.974c.112-.8.214-1.882.269-2.692.028-.41.028-.926.031-1.387C278.148,210.935,274.259,216.322,266.851,220.627ZM229.764,236.2l.132.06Z" transform="translate(-204.877 -179.566)" fill="#f18700"/>
        <path id="Path_214" data-name="Path 214" d="M511.972,204.233c0-.136.006-.271,0-.406C511.974,203.954,511.973,204.091,511.972,204.233Z" transform="translate(-438.56 -177.881)" fill="#f18700"/>
      </g>
      <g id="Group_22" data-name="Group 22" transform="translate(26.013 0)">
        <path id="Path_215" data-name="Path 215" d="M144.748,258.715c-2.367-1.319-4.5-1.422-6.049-.521-.293.179-.673.433-.951.634-.177.128-.4.321-.561.463a9.087,9.087,0,0,0-1.052,1.108,9.73,9.73,0,0,0-1.652,3.066c-.11.327-.219.774-.3,1.111-.05.215-.094.507-.126.725a11.768,11.768,0,0,0-.108,1.752,12.554,12.554,0,0,0,.136,1.695,13.061,13.061,0,0,0,.493,2.139c.062.206.153.479.232.68.155.392.366.914.546,1.3.09.19.212.442.315.625s.236.429.342.61.258.415.369.593a12.943,12.943,0,0,0,.824,1.145c.127.169.314.38.45.542.324.388.822.869,1.01,1.05a14.733,14.733,0,0,0,1.294,1.072c.182.13.425.3.615.42.3.184.7.425,1.01.582a10.921,10.921,0,0,0,1.372.595c.212.068.491.171.706.224.407.1.954.217,1.368.284a7.376,7.376,0,0,0,1.205.09c.217,0,.506,0,.722-.018.336-.028.783-.073,1.114-.137.213-.041.5-.1.7-.159.287-.081.665-.2.944-.307a12.362,12.362,0,0,0,1.32-.633c1.6-.93,2.577-2.931,2.542-5.766C153.518,268.094,149.561,261.4,144.748,258.715Zm-5.178,17.071a7.319,7.319,0,0,1-3.379-5.718c-.026-2.133,1.444-3.03,3.284-2.005a7.319,7.319,0,0,1,3.379,5.718C142.881,275.914,141.41,276.811,139.57,275.786Z" transform="translate(-133.951 -221.216)" fill="#f91"/>
        <path id="Path_216" data-name="Path 216" d="M226.974,94.258c-.049-.465-.108-1.085-.173-1.547s-.177-1.054-.259-1.505c-.075-.414-.2-.962-.315-1.366-.2-.718-.5-1.669-.743-2.374a25.529,25.529,0,0,0-1.408-3.145c-.727-1.3-.727-1.3-1.137-1.923-.191-.292-.638-.976-1.34-1.862a24.751,24.751,0,0,0-2.623-2.84c-.631-.568-1.5-1.291-2.175-1.811-.451-.349-1.079-.779-1.564-1.08s-1.11-.7-1.611-.955c-.989-.5-2.329-1.132-3.352-1.561-.579-.243-1.376-.5-1.975-.688s-1.392-.405-2-.543a28.577,28.577,0,0,0-3.5-.615c-.677-.058-1.577-.166-2.256-.187-1.03-.031-2.407-.063-3.434.014-.72.054-1.681.117-2.4.217-1.018.143-2.371.378-3.376.593a42.711,42.711,0,0,0-4.853,1.461,26.7,26.7,0,0,0-3.25,1.41c-.743.4-1.75.9-2.474,1.332-.547.326-1.565.932-2.765,1.789-.751.537-1.716,1.3-2.433,1.885-.4.322-.9.779-1.274,1.126-.332.309-.768.727-1.087,1.049-.357.361-.816.859-1.165,1.229s-.79.888-1.108,1.286c-.553.693-1.261,1.641-1.777,2.362-.3.417-.666.993-.932,1.431s-.62,1.045-.872,1.5c-.211.382-.469.9-.669,1.291-.247.478-.538,1.134-.745,1.631-.329.791-.72,1.867-.994,2.679-.182.543-.386,1.28-.524,1.835-.152.613-.339,1.435-.441,2.058-.094.569-.185,1.27-.261,1.925q-.042.312-.072.636a5.352,5.352,0,0,1-.279.834,8.968,8.968,0,0,1-.55,1.079c-.044.077-.266.445-.546.826a10.658,10.658,0,0,1-.677.844s-.337.392-.8.826a11.806,11.806,0,0,1-.907.779c-.15.123-.358.277-.519.385-.29.2-.683.448-.982.63,1.549-.9,3.682-.8,6.049.521,4.813,2.682,8.77,9.379,8.839,14.958,4.713-2.739,11.042-4.349,17.72-4.609a54.479,54.479,0,0,0,24.617-6.787c7.608-4.421,11.506-9.983,11.443-15.115C227.054,95.595,227.034,94.829,226.974,94.258Zm-63.325,6.775c-.005.061-.013.119-.018.181C163.638,101.118,163.643,101.073,163.649,101.033Z" transform="translate(-153.648 -70.223)" fill="#f91"/>
      </g>
      <path id="Path_217" data-name="Path 217" d="M61.285,310.4a2.2,2.2,0,0,0-2.214-.217l-21.6,12.6.005,0a2.175,2.175,0,0,0-.914,2,6.836,6.836,0,0,0,3.1,5.373,2.122,2.122,0,0,0,2.315.146c-.034.023-.066.05-.1.071l21.6-12.6a2.178,2.178,0,0,0,.908-2A6.837,6.837,0,0,0,61.285,310.4Z" transform="translate(-29.459 -263.413)" fill="#fec377"/>
      <path id="Path_218" data-name="Path 218" d="M41.235,322.777l21.6-12.6a2.2,2.2,0,0,1,2.214.217l-21.6,12.6A2.2,2.2,0,0,0,41.235,322.777Z" transform="translate(-33.227 -263.413)" fill="#fedaaa"/>
      <path id="Path_219" data-name="Path 219" d="M76.433,319.538l-21.6,12.6a2.178,2.178,0,0,0,.908-2,6.837,6.837,0,0,0-3.1-5.373l21.6-12.6a6.837,6.837,0,0,1,3.1,5.373A2.178,2.178,0,0,1,76.433,319.538Z" transform="translate(-42.413 -265.183)" fill="#fec377"/>
      <path id="Path_220" data-name="Path 220" d="M39.681,375.257a6.837,6.837,0,0,1,3.1,5.373c-.006,1.975-1.4,2.771-3.122,1.779a6.836,6.836,0,0,1-3.1-5.373C36.565,375.062,37.962,374.265,39.681,375.257Z" transform="translate(-29.459 -315.676)" fill="#fedaaa"/>
      <circle id="Ellipse_17" data-name="Ellipse 17" cx="6.16" cy="6.16" r="6.16" transform="translate(0 55.481)" fill="#fec377"/>
      <path id="Path_221" data-name="Path 221" d="M.939,362.733a6.159,6.159,0,0,1,9.2-5.356,6.16,6.16,0,1,0-7.025,10.054A6.146,6.146,0,0,1,.939,362.733Z" transform="translate(0 -300.434)" fill="#fedaaa"/>
      <circle id="Ellipse_18" data-name="Ellipse 18" cx="6.16" cy="6.16" r="6.16" transform="translate(7.596 59.835)" fill="#fec377"/>
      <path id="Path_222" data-name="Path 222" d="M39.839,384.952a6.162,6.162,0,0,1,9.09-5.42,6.161,6.161,0,1,0-6.581,10.381A6.151,6.151,0,0,1,39.839,384.952Z" transform="translate(-31.52 -318.497)" fill="#fedaaa"/>
      <ellipse id="Ellipse_19" data-name="Ellipse 19" cx="7.94" cy="13.344" rx="7.94" ry="13.344" transform="translate(55.11 21.232) rotate(-101.847)" fill="#ffa834"/>
    </g>
    <g id="watermelon" transform="translate(731.604 2344.604)">
      <path id="Path_369" data-name="Path 369" d="M121.979,30.329l-11.507,6.643,20.415,11.864c.089,31.4-21.993,69.651-49.322,85.429s-49.555,3.112-49.644-28.291L11.507,94.11,0,100.754c.055,19.229,6.843,32.757,17.791,39.12l20.415,11.864-.152-.09c11.1,6.542,26.522,5.671,43.549-4.16C115.287,128.04,142.5,80.9,142.394,42.193Z" transform="translate(0 -30.329)" fill="#86bc06"/>
      <path id="Path_370" data-name="Path 370" d="M417.636,48.836,397.221,36.973l11.506-6.644,20.415,11.864Z" transform="translate(-286.748 -30.329)" fill="#9cdd03"/>
      <path id="Path_371" data-name="Path 371" d="M140.34,54.217,41.374,111.355l20.415,11.864c.089,31.4,22.316,44.069,49.644,28.291s49.411-54.026,49.322-85.429Z" transform="translate(-29.867 -47.573)" fill="#fe0b37"/>
      <path id="Path_372" data-name="Path 372" d="M61.789,123.219,41.374,111.355,140.34,54.217l20.415,11.864Z" transform="translate(-29.867 -47.573)" fill="#ff3e61"/>
      <path id="Path_373" data-name="Path 373" d="M213.745,96.874c.089,31.4-21.993,69.651-49.322,85.429s-49.555,3.112-49.644-28.291Z" transform="translate(-82.857 -78.367)" fill="#fe0b37"/>
      <path id="Path_374" data-name="Path 374" d="M20.415,278.172,0,266.308l11.507-6.643,20.415,11.864Z" transform="translate(0 -195.883)" fill="#9cdd03"/>
      <path id="Path_375" data-name="Path 375" d="M38.206,334.535,17.791,322.672C6.843,316.309.055,302.781,0,283.552l20.415,11.864C20.469,314.644,27.257,328.173,38.206,334.535Z" transform="translate(0 -213.127)" fill="#8fcc05"/>
      <path id="Path_376" data-name="Path 376" d="M195.383,72.988c.11,38.706-27.107,85.847-60.791,105.294s-61.078,3.836-61.188-34.87l11.507-6.644c.089,31.4,22.316,44.069,49.644,28.291s49.411-54.026,49.322-85.429Z" transform="translate(-52.989 -61.124)" fill="#86bc06"/>
      <path id="Path_377" data-name="Path 377" d="M157.591,176.549q.222-.128.449-.245c2.157-1.106,3.86-.978,3.8.286-.053,1.174-1.609,2.916-3.561,4.044q-.221.128-.448.244c-2.157,1.1-3.86.978-3.8-.286.053-1.174,1.608-2.916,3.56-4.043m17.3-1.752c-1.952,1.127-3.507,2.869-3.56,4.043-.057,1.263,1.646,1.391,3.8.285q.227-.117.449-.245c1.952-1.127,3.507-2.869,3.56-4.043.057-1.263-1.646-1.391-3.8-.286q-.227.117-.449.245m-10.216,17.984a11.691,11.691,0,0,0-2.744,2.428c-1.928,2.228-3.1,4.7-2.616,5.523.24.407.841.333,1.622-.118a11.7,11.7,0,0,0,2.744-2.428c1.928-2.228,3.1-4.7,2.616-5.523-.24-.407-.841-.333-1.621.118m12.936,6.8c-.929.536-2.2,2.329-3.156,4.545-1.186,2.758-1.422,5.127-.527,5.29a.926.926,0,0,0,.611-.155c.929-.536,2.2-2.329,3.156-4.545,1.186-2.758,1.422-5.127.527-5.29a.926.926,0,0,0-.611.155m9.579-22.285c-.929.536-2.2,2.329-3.156,4.544-1.186,2.758-1.422,5.127-.527,5.29a.927.927,0,0,0,.611-.155c.929-.536,2.2-2.329,3.156-4.544,1.186-2.758,1.422-5.127.527-5.29a.926.926,0,0,0-.611.155m7.2,17.809c-1.044.6-1.98,3.065-2.106,5.571-.129,2.556.634,4.191,1.7,3.651l.062-.033c1.044-.6,1.98-3.065,2.106-5.571.129-2.556-.633-4.191-1.7-3.651l-.062.033m16.739-14.73a1.831,1.831,0,0,0-.464.388c-.958,1.1-.954,3.346.008,5.02.82,1.425,2.07,1.974,3.015,1.429a1.842,1.842,0,0,0,.464-.388c.958-1.1.954-3.346-.008-5.02-.82-1.425-2.07-1.974-3.015-1.429m-9.275-13.076a1.835,1.835,0,0,0-.463.387c-.958,1.1-.954,3.346.008,5.02.82,1.425,2.07,1.975,3.015,1.429a1.831,1.831,0,0,0,.464-.388c.958-1.1.954-3.346-.009-5.019-.82-1.425-2.07-1.975-3.015-1.429m21.976-8.342a2.969,2.969,0,0,0-1.273,1.346c-.593,1.366.384,2.753,2.182,3.1a4.528,4.528,0,0,0,3.057-.5,2.969,2.969,0,0,0,1.273-1.346c.593-1.366-.383-2.754-2.182-3.1a4.524,4.524,0,0,0-3.056.5m-34.112,4.376a2.969,2.969,0,0,0-1.273,1.346c-.593,1.366.384,2.753,2.182,3.1a4.528,4.528,0,0,0,3.057-.5,2.969,2.969,0,0,0,1.273-1.346c.593-1.366-.384-2.754-2.182-3.1a4.528,4.528,0,0,0-3.056.5m40.729-28.149c-1.906,1.1-3.42,2.787-3.484,3.948-.07,1.27,1.62,1.429,3.775.357q.278-.138.546-.293c1.906-1.1,3.42-2.788,3.485-3.948.07-1.269-1.62-1.429-3.776-.356q-.277.138-.546.293m-24.909,15.1c-1.906,1.1-3.42,2.788-3.484,3.948-.071,1.269,1.62,1.429,3.775.356q.278-.138.546-.293c1.906-1.1,3.42-2.787,3.484-3.948.071-1.27-1.62-1.43-3.775-.357q-.277.138-.546.293" transform="translate(-111.192 -105.294)" fill="#1d1d1f"/>
      <g id="Group_40" data-name="Group 40" transform="translate(31.612 20.567)">
        <ellipse id="Ellipse_21" data-name="Ellipse 21" cx="2.244" cy="5.127" rx="2.244" ry="5.127" transform="matrix(-0.68, -0.733, 0.733, -0.68, 3.054, 44.728)" fill="#3e3d43"/>
        <ellipse id="Ellipse_22" data-name="Ellipse 22" cx="2.244" cy="5.127" rx="2.244" ry="5.127" transform="matrix(-0.68, -0.733, 0.733, -0.68, 62.388, 10.266)" fill="#3e3d43"/>
        <ellipse id="Ellipse_23" data-name="Ellipse 23" cx="2.244" cy="5.127" rx="2.244" ry="5.127" transform="translate(25.893 31.058) rotate(-97.291)" fill="#3e3d43"/>
      </g>
    </g>
  </g>
</svg>
