<svg xmlns="http://www.w3.org/2000/svg" xmlns:xlink="http://www.w3.org/1999/xlink" width="199.986" height="228.634" viewBox="0 0 199.986 228.634">
  <defs>
    <filter id="Shape_1" x="0" y="81.21" width="199.986" height="147.424" filterUnits="userSpaceOnUse">
      <feOffset dy="37" input="SourceAlpha"/>
      <feGaussianBlur stdDeviation="10" result="blur"/>
      <feFlood flood-opacity="0.161"/>
      <feComposite operator="in" in2="blur"/>
      <feComposite in="SourceGraphic"/>
    </filter>
  </defs>
  <g id="harvest-mod" transform="translate(19.256 0.998)">
    <g transform="matrix(1, 0, 0, 1, -19.26, -1)" filter="url(#Shape_1)">
      <path id="Shape_1-2" data-name="Shape 1" d="M112.367,256,34,300.9l62.153,35.521,77.833-45" transform="translate(-4 -174.79)" fill="#b98e4f"/>
    </g>
    <path id="Shape_1_copy" data-name="Shape 1 copy" d="M112.367,256,34,300.9l62.153,35.521,77.833-45" transform="translate(-23.256 -175.788)" fill="#b98e4f"/>
    <path id="Shape_1_copy_2" data-name="Shape 1 copy 2" d="M112.367,256,34,300.9l62.153,35.521,77.833-45" transform="translate(-23.256 -175.788)" fill="#b98e4f"/>
    <path id="Layer" d="M111.813,173.29,33.5,218.758v25.336l4.911,2.834,73.317-42.564L169.163,237.4l4.911-2.834V209.231Z" transform="translate(-22.914 -119.214)" fill="#f8db8f"/>
    <path id="Layer-2" data-name="Layer" d="M281.06,191.45,338.5,224.5v25.321L281.06,216.786Z" transform="translate(-192.247 -131.636)" fill="#f7bd69"/>
    <path id="Layer-3" data-name="Layer" d="M174.073,209.231l-62.26-35.941L33.5,218.758l4.911,2.834,73.3-42.558,57.454,33.044Z" transform="translate(-22.914 -119.214)" fill="#fff5ae"/>
    <path id="Layer-4" data-name="Layer" d="M111.813,84.61,33.5,130.078v25.336l4.911,2.834,73.317-42.564,57.435,33.037,4.911-2.834V120.554Z" transform="translate(-22.914 -58.557)" fill="#f8db8f"/>
    <path id="Layer-5" data-name="Layer" d="M281.06,102.77,338.5,135.82v25.324L281.06,128.106Z" transform="translate(-192.247 -70.978)" fill="#f7bd69"/>
    <path id="Layer-6" data-name="Layer" d="M174.073,120.554,111.813,84.61,33.5,130.078l4.911,2.834,73.3-42.558L169.163,123.4Z" transform="translate(-22.914 -58.557)" fill="#fff5ae"/>
    <path id="Layer-7" data-name="Layer" d="M257.892,60.775s8.775-18.441,7.89-33.849c-.433-7.587-6.13-16.713-11.8-24.019a10.06,10.06,0,0,0-17.547,3.125c-4.614,14.545-9.47,35.344-4.4,47.172C240.408,72.707,257.892,60.775,257.892,60.775Z" transform="translate(-157.238 0)" fill="#1b6d40"/>
    <path id="Layer-8" data-name="Layer" d="M277.448,53.448a98.6,98.6,0,0,0-3.438-24.1,270.425,270.425,0,0,1-.357,27.248c-.976,11.992-3.583,31.271-3.583,31.271l4.076-.752C278.223,86.368,277.474,65.835,277.448,53.448Z" transform="translate(-184.729 -20.758)" fill="#a2bf26"/>
    <path id="Layer-9" data-name="Layer" d="M272.323,139.531s-5.192-10.466-.755-25.409a46.227,46.227,0,0,1,23.159-27.7c8.036-4.215,17.5-5.58,20.306-2.1,1.324,1.643-1.251,34.551-11.212,48.818s-31.5,6.386-31.5,6.386Z" transform="translate(-184.527 -57.006)" fill="#5b9617"/>
    <path id="Layer-10" data-name="Layer" d="M183.106,145.772s10.842-11.407,10.143-24.992-7.54-27.131-14.681-33.164c-8.7-7.344-20.748-8.665-22.553-5.558s-3.959,23.911-.4,37.916S174.574,144.486,183.106,145.772Z" transform="translate(-105.131 -55.736)" fill="#5b9617"/>
    <path id="Layer-11" data-name="Layer" d="M208.8,195.227s2.793-33.274-.7-46.243c-4.9-18.17-15.367-25.924-15.367-25.924s9.935,15.989,11.8,29.3.082,39.559.082,39.559S205.057,194.677,208.8,195.227Z" transform="translate(-131.828 -84.857)" fill="#d8d836"/>
    <path id="Layer-12" data-name="Layer" d="M243.57,195.788s8.229-30.026,17.316-45.993a93.133,93.133,0,0,1,22.455-25.915s-16.849,22.919-22.436,36.478-12.036,33.325-12.036,33.325-.3,1.713-5.3,2.1Z" transform="translate(-166.603 -85.417)" fill="#d8d836"/>
    <path id="Layer-13" data-name="Layer" d="M137.3,222.325s1.89-10.807-2.778-15.762-8.936-6.478-16.647-7.012-12.978.641-13.559,2.575,4.794,17.342,16.564,20.824,16.419-.626,16.419-.626Z" transform="translate(-71.324 -137.088)" fill="#249155"/>
    <path id="Layer-14" data-name="Layer" d="M155.885,254.829s-4.238-20.454-13.973-28.8S115.27,213.14,115.27,213.14s20.821,10.7,26.326,18.1,10.033,22.293,10.033,22.293S152.289,256.257,155.885,254.829Z" transform="translate(-78.845 -146.472)" fill="#d8d836"/>
    <path id="Layer-15" data-name="Layer" d="M319.159,229.241s5.148-6.336,12.428-7.884a34.809,34.809,0,0,1,11.4.092,5.763,5.763,0,0,1,4.193,8.535c-2.49,4.373-6.816,9.527-13.967,11.6C319.762,245.473,313.585,236.2,319.159,229.241Z" transform="translate(-216.906 -151.794)" fill="#1b6d40"/>
    <path id="Layer-16" data-name="Layer" d="M294.711,238s-19.57,1.349-30.623,10.826S244.68,272.6,244.68,272.6l4.386-.111c4.389-.107,4.339-9.436,15.474-19.484s30.171-15,30.171-15Z" transform="translate(-167.362 -163.476)" fill="#d8d836"/>
    <path id="Layer-17" data-name="Layer" d="M236.227,169.717s-5.745-2.417-5.66-15.019,6.023-21.137,12.058-28.563c2.541-3.125,7.274-6.844,11.907-10.1a7.666,7.666,0,0,1,12.055,6.69c-.714,13.335-2.433,31.96-6.547,39.376-6.724,12.118-23.813,7.619-23.813,7.619Z" transform="translate(-157.709 -79.087)" fill="#31ba55"/>
    <path id="Layer-18" data-name="Layer" d="M235.69,202.685s3.694-25.621,10.864-42.318,16.258-25.027,16.258-25.027-14.6,26.168-18.122,43.851c-2.323,11.657-4.6,23.678-4.6,23.678S239.634,203.813,235.69,202.685Z" transform="translate(-161.213 -93.256)" fill="#d8d836"/>
    <path id="Layer-19" data-name="Layer" d="M158.811,212.3c2.831,11.6-4.866,20.906-16.466,23.734a21.627,21.627,0,0,1-26.136-15.882c-2.828-11.6,5.132-21.1,16.735-23.933A21.475,21.475,0,0,1,158.811,212.3Z" transform="translate(-79.095 -134.481)" fill="#bf0025"/>
    <path id="Layer-20" data-name="Layer" d="M128.5,242.093a3.877,3.877,0,0,1-1.8-.692,11.1,11.1,0,0,1-4.079-6.007,3.9,3.9,0,1,1,7.486-2.212,3.71,3.71,0,0,0,1.068,1.956,3.849,3.849,0,0,1-2.673,6.955Z" transform="translate(-83.763 -158.263)" fill="#ea2642"/>
    <path id="Layer-21" data-name="Layer" d="M160.044,196.925a9.39,9.39,0,0,0-4.642-.335,5.481,5.481,0,0,1,1.055-1.713,16.04,16.04,0,0,1,4.433-3.536s-4.392-.079-6.9,1.3a5.733,5.733,0,0,0-1.713,1.574c.111-.714.205-1.412.24-1.918.095-1.548.073-3.425.073-3.425s-2.61,1.469-3.119,3.574a7.915,7.915,0,0,0-.123,2.5,10.069,10.069,0,0,0-2.168-.645c-3.473-.585-7.366,1.836-7.366,1.836a21.243,21.243,0,0,1,6.209,1.286,8.782,8.782,0,0,1,2.294,1.062,13.2,13.2,0,0,0-4.816,2.759c-2.645,2.8-1.653,8.323-1.653,8.323a39.85,39.85,0,0,1,5.628-7.394,9,9,0,0,1,2.616-1.8,12.423,12.423,0,0,0,.009,2.929c.341,2.689,4.092,7.634,4.092,7.634a33.592,33.592,0,0,0,.351-7.451,12.49,12.49,0,0,0-1.22-3.988,23.819,23.819,0,0,1,3.308.12,18.7,18.7,0,0,1,9.113,4.117S163.684,198.192,160.044,196.925Z" transform="translate(-95.638 -129.871)" fill="#447111"/>
    <path id="Layer-22" data-name="Layer" d="M160.528,195.351l-.038.009a1.539,1.539,0,0,1-1.83-1.176c-.016-.073-1.169-5.106-4.49-6.611a1.539,1.539,0,1,1,1.27-2.8c4.746,2.146,6.168,8.491,6.228,8.759A1.54,1.54,0,0,1,160.528,195.351Z" transform="translate(-104.834 -126.973)" fill="#5b9617"/>
    <path id="Layer-23" data-name="Layer" d="M169.163,278.06,95.738,320.691,38.42,287.565l-4.92,2.857v25.336l62.178,35.9v.006l.006,0,.006,0v-.006l78.382-45.431V280.894Z" transform="translate(-22.914 -190.877)" fill="#f7bd69"/>
    <path id="Layer-24" data-name="Layer" d="M308.686,287.03,230.3,332.467V357.8l78.386-45.437Z" transform="translate(-157.526 -197.013)" fill="#f8db8f"/>
    <path id="Layer-25" data-name="Layer" d="M174.073,280.894l-4.911-2.834L95.738,320.691l-57.328-33.1L33.5,290.428l62.191,35.9,0,0Z" transform="translate(-22.914 -190.877)" fill="#fff5ae"/>
    <path id="Layer-26" data-name="Layer" d="M174.073,192.214v25.336L95.691,262.982v.006l-.006,0-.006,0v-.006L33.5,227.078V201.742l4.92-2.857,57.318,33.126,73.425-42.631ZM72.525,234.472a2.622,2.622,0,0,0,.054-.528,7.56,7.56,0,0,0-3.782-6.551l-13.139-7.587c-.073-.041-.145-.07-.215-.1-.009.1-.019.2-.019.3a7.565,7.565,0,0,0,3.782,6.554l13.139,7.587c.07.038.142.07.215.1C72.551,234.324,72.541,234.4,72.525,234.472Zm-.022.1c.006-.035.016-.069.022-.1C72.519,234.507,72.51,234.542,72.5,234.577Z" transform="translate(-22.914 -130.22)" fill="#f7bd69" fill-rule="evenodd"/>
    <path id="Layer-27" data-name="Layer" d="M308.686,198.36,230.3,243.794V269.13l78.386-45.437Z" transform="translate(-157.526 -136.362)" fill="#f8db8f"/>
    <path id="Layer-28" data-name="Layer" d="M174.073,192.224l-4.911-2.834L95.738,232.018l-57.328-33.1L33.5,201.755l62.191,35.9,0,0Z" transform="translate(-22.914 -130.227)" fill="#fff5ae"/>
    <path id="Layer-29" data-name="Layer" d="M111.836,299.334c-.073-.035-.145-.066-.215-.1l-13.139-7.587a7.565,7.565,0,0,1-3.782-6.554,2.319,2.319,0,0,1,.019-.3c.044.019.088.044.133.063a2.673,2.673,0,0,0-3.931,2.357,7.569,7.569,0,0,0,3.782,6.554l13.139,7.587a2.672,2.672,0,0,0,3.994-2.016Z" transform="translate(-62.19 -195.306)" fill="#b98e4f"/>
    <path id="Shape_2" data-name="Shape 2" transform="translate(0 -0.683)" fill="#b98e4f"/>
    <path id="Layer-30" data-name="Layer" d="M111.621,299.236l-13.139-7.587a7.565,7.565,0,0,1-3.782-6.554c0-.1.009-.2.019-.3a2.672,2.672,0,0,0-3.8,2.421,7.565,7.565,0,0,0,3.782,6.554l13.139,7.587a2.675,2.675,0,0,0,3.994-2.016c-.073-.035-.145-.066-.215-.1Z" transform="translate(-62.19 -195.312)" fill="#f8db8f"/>
  </g>
</svg>
