<svg xmlns="http://www.w3.org/2000/svg" xmlns:xlink="http://www.w3.org/1999/xlink" width="230.479" height="188.633" viewBox="0 0 230.479 188.633">
  <defs>
    <filter id="Path_103" x="0" y="0" width="230.479" height="188.633" filterUnits="userSpaceOnUse">
      <feOffset dy="37" input="SourceAlpha"/>
      <feGaussianBlur stdDeviation="10" result="blur"/>
      <feFlood flood-opacity="0.161"/>
      <feComposite operator="in" in2="blur"/>
      <feComposite in="SourceGraphic"/>
    </filter>
  </defs>
  <g id="pizza" transform="translate(30 -73.35)">
    <g transform="matrix(1, 0, 0, 1, -30, 73.35)" filter="url(#Path_103)">
      <path id="Path_103-2" data-name="Path 103" d="M170.479,131.263c-9.29-12.892-22.9-24.749-40.264-34.773C113.508,86.844,93.332,78.9,70.189,73.35L63.61,82.62,63.578,94l.045.012-63.59,89.6L0,194.983l170.447-40.938.032-11.376-.032-.043Z" transform="translate(30 -73.35)" fill="#fec377"/>
    </g>
    <path id="Path_104" data-name="Path 104" d="M170.479,281.535l-.032,11.376L0,333.849l.032-11.376Z" transform="translate(0 -138.866)" fill="#f91"/>
    <path id="Path_105" data-name="Path 105" d="M130.279,130.745c17.361,10.023,30.974,21.88,40.264,34.773L.1,206.456l70.156-98.851C93.4,113.151,113.572,121.1,130.279,130.745Z" transform="translate(-0.065 -22.849)" fill="#ffeb9a"/>
    <path id="Path_106" data-name="Path 106" d="M479.905,247.281l-.032,11.376L463.885,262.5l.032-11.376Z" transform="translate(-309.427 -116.018)" fill="#f91"/>
    <g id="Group_4" data-name="Group 4" transform="translate(63.577 82.62)">
      <g id="Group_3" data-name="Group 3">
        <g id="Group_2" data-name="Group 2">
          <path id="Path_107" data-name="Path 107" d="M335.8,171.284l-.032,11.376c-9.138-11.433-21.74-21.957-37.393-30.994a198.3,198.3,0,0,0-26.558-12.7l.032-11.376a198.424,198.424,0,0,1,26.558,12.7c15.653,9.037,28.256,19.561,37.393,30.994" transform="translate(-244.89 -118.8)" fill="#ffa834"/>
          <path id="Path_108" data-name="Path 108" d="M195.513,102.441q-2.249-.64-4.54-1.249l-.032,11.376q2.291.608,4.54,1.249,11.78,3.355,22.39,7.54l.032-11.376Q207.3,105.812,195.513,102.441Z" transform="translate(-190.941 -101.192)" fill="#f91"/>
        </g>
      </g>
    </g>
    <path id="Path_109" data-name="Path 109" d="M257.643,96.491c17.36,10.023,30.974,21.88,40.264,34.773l-15.988,3.841c-9.138-11.433-21.74-21.957-37.394-30.994-15.113-8.725-33.069-16.064-53.487-21.49l6.579-9.27C220.76,78.9,240.936,86.845,257.643,96.491Z" transform="translate(-127.429 -0.001)" fill="#fec377"/>
    <g id="Group_5" data-name="Group 5" transform="translate(6.094 90.991)">
      <path id="Path_110" data-name="Path 110" d="M161.084,151.884c3.724-2.164,5.588-5,5.6-7.833l.02-6.913c0,.084-.008.167-.011.25.122-2.955-1.766-5.935-5.671-8.19a25.017,25.017,0,0,0-8.535-2.868l-14.51,20.448-.02,6.913C145.317,156.116,154.833,155.516,161.084,151.884Z" transform="translate(-98.114 -126.33)" fill="#ff5023"/>
      <path id="Path_111" data-name="Path 111" d="M258.222,200.495c0,.083-.008.166-.011.249.122-2.955-1.767-5.935-5.674-8.191-7.542-4.355-19.734-4.355-27.23,0-3.736,2.171-5.6,5.014-5.6,7.86,0-.009,0-.018,0-.027l-.02,6.913c-.008,2.872,1.888,5.749,5.683,7.94,7.545,4.356,19.736,4.356,27.232,0,3.724-2.164,5.588-5,5.6-7.832Z" transform="translate(-152.636 -168.324)" fill="#ff5023"/>
      <path id="Path_112" data-name="Path 112" d="M110.126,228.406c0,.083-.008.166-.011.249.122-2.955-1.767-5.935-5.674-8.191A28.111,28.111,0,0,0,90.3,217.2L76.946,236.022l-.02,6.913c.119.072.233.144.355.214,7.545,4.356,19.737,4.356,27.23,0,3.724-2.164,5.588-5,5.6-7.832Z" transform="translate(-57.406 -186.943)" fill="#ff5023"/>
      <path id="Path_113" data-name="Path 113" d="M204.883,284.614c-7.545-4.356-19.737-4.356-27.232,0-3.735,2.17-5.6,5.013-5.593,7.858,0-.009,0-.018,0-.028l-.02,6.913c-.008,2.873,1.888,5.75,5.685,7.943.117.067.238.131.357.2l32.456-7.8q0-.118.005-.237l.02-6.913c0,.079,0,.157-.005.237C210.67,289.837,208.781,286.865,204.883,284.614Z" transform="translate(-120.849 -229.732)" fill="#ff5023"/>
      <path id="Path_114" data-name="Path 114" d="M49.468,312.524C43.9,309.309,35.8,308.47,28.919,310l-10.6,14.93-.02,6.913a13.527,13.527,0,0,0,4,3.362,23.126,23.126,0,0,0,5.785,2.3l25.786-6.191a7.19,7.19,0,0,0,1.251-3.942l.02-6.913c0,.014,0,.029,0,.042C55.174,317.619,53.282,314.726,49.468,312.524Z" transform="translate(-18.303 -248.351)" fill="#ff5023"/>
      <path id="Path_115" data-name="Path 115" d="M363.662,256.705c-7.545-4.356-19.737-4.356-27.232,0-3.735,2.17-5.594,5.012-5.589,7.856,0-.01,0-.02,0-.03l-.02,6.913a7.922,7.922,0,0,0,2.55,5.577l35.25-8.467.02-6.913A11.878,11.878,0,0,0,363.662,256.705Z" transform="translate(-226.762 -211.115)" fill="#ff5023"/>
    </g>
    <path id="Path_116" data-name="Path 116" d="M166.7,158.79l-.02,6.913c-.008,2.836-1.872,5.668-5.6,7.833-6.251,3.633-15.767,4.233-23.132,1.807l.02-6.913c7.364,2.426,16.881,1.826,23.132-1.807C164.827,164.458,166.691,161.626,166.7,158.79Z" transform="translate(-92.019 -56.991)" fill="#cd2a01"/>
    <path id="Path_117" data-name="Path 117" d="M161.057,129.2c7.542,4.355,7.582,11.416.086,15.772-6.251,3.633-15.767,4.233-23.132,1.807l14.51-20.448A25.018,25.018,0,0,1,161.057,129.2Z" transform="translate(-92.058 -35.339)" fill="#ff5023"/>
    <path id="Path_118" data-name="Path 118" d="M258.221,222.731l-.02,6.913c-.008,2.836-1.872,5.668-5.6,7.832-7.5,4.356-19.687,4.356-27.232,0-3.8-2.191-5.691-5.067-5.683-7.94l.02-6.913c-.008,2.872,1.888,5.749,5.683,7.94,7.545,4.356,19.736,4.356,27.232,0C256.349,228.4,258.213,225.567,258.221,222.731Z" transform="translate(-146.541 -99.57)" fill="#cd2a01"/>
    <path id="Path_119" data-name="Path 119" d="M252.575,192.553c7.545,4.356,7.585,11.418.089,15.774s-19.687,4.356-27.232,0-7.582-11.416-.086-15.772S245.033,188.2,252.575,192.553Z" transform="translate(-146.58 -77.334)" fill="#ff5023"/>
    <path id="Path_120" data-name="Path 120" d="M110.127,250.855l-.02,6.913c-.008,2.836-1.872,5.668-5.6,7.832-7.493,4.355-19.685,4.355-27.23,0-.122-.07-.235-.142-.355-.214l.02-6.913c.119.072.233.144.355.214,7.545,4.356,19.737,4.356,27.23,0C108.255,256.523,110.119,253.691,110.127,250.855Z" transform="translate(-51.313 -118.402)" fill="#cd2a01"/>
    <path id="Path_121" data-name="Path 121" d="M104.48,220.464c7.545,4.356,7.585,11.418.089,15.774s-19.685,4.355-27.23,0c-.122-.07-.235-.142-.355-.214L90.338,217.2A28.1,28.1,0,0,1,104.48,220.464Z" transform="translate(-51.351 -95.952)" fill="#ff5023"/>
    <g id="Group_6" data-name="Group 6" transform="translate(63.325 153.809)">
      <path id="Path_122" data-name="Path 122" d="M287.684,314.993l-.02,6.913c0,.079,0,.158-.005.237l.02-6.913Q287.684,315.111,287.684,314.993Z" transform="translate(-255.203 -314.993)" fill="#cd2a01"/>
      <path id="Path_123" data-name="Path 123" d="M222.66,315.7l-.019,6.913-32.456,7.8.02-6.913Z" transform="translate(-190.185 -315.468)" fill="#cd2a01"/>
    </g>
    <path id="Path_124" data-name="Path 124" d="M172.037,321.588l.02-6.913c-.008,2.873,1.888,5.75,5.685,7.943.117.067.238.131.357.2l-.02,6.913c-.119-.066-.241-.13-.357-.2C173.925,327.338,172.029,324.461,172.037,321.588Z" transform="translate(-114.754 -160.972)" fill="#ff3502"/>
    <path id="Path_125" data-name="Path 125" d="M204.922,284.613c3.9,2.251,5.788,5.224,5.672,8.173l-32.456,7.8c-.119-.066-.241-.13-.357-.2-7.545-4.356-7.585-11.418-.092-15.772S197.377,280.257,204.922,284.613Z" transform="translate(-114.794 -138.74)" fill="#ff5023"/>
    <g id="Group_7" data-name="Group 7" transform="translate(15.884 163.102)">
      <path id="Path_126" data-name="Path 126" d="M126.418,342.9l-.02,6.913a7.19,7.19,0,0,1-1.251,3.942l.02-6.913A7.193,7.193,0,0,0,126.418,342.9Z" transform="translate(-99.362 -342.902)" fill="#cd2a01"/>
      <path id="Path_127" data-name="Path 127" d="M73.51,354.743l-.019,6.913L47.7,367.847l.02-6.913Z" transform="translate(-47.704 -350.8)" fill="#cd2a01"/>
    </g>
    <path id="Path_128" data-name="Path 128" d="M28.112,362l-.02,6.913a23.143,23.143,0,0,1-5.785-2.3,13.536,13.536,0,0,1-4-3.362l.02-6.913a13.527,13.527,0,0,0,4,3.362A23.158,23.158,0,0,0,28.112,362Z" transform="translate(-12.209 -188.76)" fill="#ff3502"/>
    <path id="Path_129" data-name="Path 129" d="M49.508,312.524c5.563,3.212,7.041,7.895,4.43,11.881L28.152,330.6a23.146,23.146,0,0,1-5.785-2.3,13.536,13.536,0,0,1-4-3.362L28.958,310C35.836,308.469,43.939,309.309,49.508,312.524Z" transform="translate(-12.248 -157.36)" fill="#ff5023"/>
    <path id="Path_130" data-name="Path 130" d="M373.747,278.074l-.02,6.913-35.25,8.467.019-6.913Z" transform="translate(-225.775 -136.558)" fill="#cd2a01"/>
    <path id="Path_131" data-name="Path 131" d="M330.82,293.667l.02-6.913a7.922,7.922,0,0,0,2.55,5.577l-.02,6.913A7.924,7.924,0,0,1,330.82,293.667Z" transform="translate(-220.668 -142.348)" fill="#ff3502"/>
    <path id="Path_132" data-name="Path 132" d="M363.7,256.705a11.877,11.877,0,0,1,4.977,4.936l-35.25,8.467c-4.212-4.258-3.209-9.77,3.041-13.4C343.965,252.35,356.156,252.35,363.7,256.705Z" transform="translate(-220.707 -120.125)" fill="#ff5023"/>
  </g>
</svg>
